<svg width="14" height="15" viewBox="0 0 14 15" fill="none" xmlns="http://www.w3.org/2000/svg">
<path d="M12.063 9.84759C11.2173 9.12424 10.359 8.68607 9.52363 9.40834L9.02482 9.84486C8.65987 10.1617 7.98131 11.6423 5.35778 8.62434C2.73479 5.61017 4.29569 5.14086 4.66119 4.82672L5.16273 4.38964C5.99372 3.66574 5.68012 2.75444 5.08078 1.81638L4.7191 1.24818C4.11704 0.312298 3.46143 -0.302337 2.62826 0.420473L2.17807 0.813839C1.80984 1.08209 0.780529 1.95405 0.530851 3.61056C0.230363 5.59815 1.17827 7.87421 3.34997 10.3715C5.51895 12.87 7.64258 14.1249 9.65421 14.103C11.326 14.085 12.3357 13.1879 12.6514 12.8618L13.1033 12.4678C13.9342 11.7456 13.418 11.0102 12.5717 10.2852L12.063 9.84759Z" fill="white"/>
</svg>
