<svg width="44" height="42" viewBox="0 0 44 42" fill="none" xmlns="http://www.w3.org/2000/svg">
<path d="M40.53 4.71314C39.3842 3.49598 38.0097 2.51679 36.4849 1.83162C34.9602 1.14646 33.3153 0.768779 31.6445 0.72021C29.9736 0.671642 28.3096 0.953139 26.7476 1.54858C25.1857 2.14403 23.7566 3.04172 22.542 4.19027L21.9854 4.71607C17.1645 -0.396731 9.11251 -0.633598 3.99971 4.1866C-1.11383 9.00754 -1.35069 17.0603 3.46951 22.1731L4.72277 23.5011C4.46283 24.103 4.36687 24.763 4.44468 25.4139C4.52248 26.0649 4.77126 26.6837 5.16573 27.2073C5.5602 27.731 6.08628 28.1408 6.69051 28.3952C7.29473 28.6496 7.95555 28.7395 8.60577 28.6557C8.49531 29.2307 8.52305 29.8237 8.68671 30.3859C8.85037 30.948 9.14527 31.4633 9.54711 31.8891C9.94895 32.3149 10.4462 32.6392 10.998 32.8351C11.5497 33.0311 12.1401 33.0931 12.7205 33.0161C12.61 33.591 12.6378 34.1839 12.8014 34.746C12.965 35.3081 13.2598 35.8232 13.6616 36.249C14.0634 36.6747 14.5606 36.9989 15.1122 37.1949C15.6639 37.3908 16.2542 37.4528 16.8345 37.3758C16.6923 38.148 16.7977 38.9453 17.1357 39.654C17.4737 40.3627 18.0269 40.9465 18.7164 41.3221C19.4059 41.6976 20.1965 41.8457 20.9752 41.7452C21.7539 41.6446 22.4809 41.3007 23.0524 40.7623C27.2376 36.8111 27.1063 37.0084 27.5016 36.3425C28.1024 36.6382 28.7721 36.7654 29.4394 36.7106C30.1067 36.6559 30.7468 36.4212 31.2913 36.0316C31.8359 35.6421 32.2647 35.1121 32.532 34.4982C32.7993 33.8843 32.8952 33.2094 32.8094 32.5453C33.3844 32.6531 33.9767 32.6232 34.5378 32.4582C35.099 32.2932 35.6132 31.9977 36.0382 31.5958C36.4633 31.194 36.7873 30.6973 36.9836 30.1462C37.1798 29.5952 37.2429 29.0056 37.1676 28.4255C37.9441 28.5681 38.7459 28.4603 39.4571 28.1177C40.1683 27.7751 40.7523 27.2153 41.1247 26.5192C41.4972 25.823 41.6387 25.0266 41.5291 24.2448C41.4194 23.4629 41.0641 22.7362 40.5146 22.1694C45.158 17.2795 45.1646 9.61107 40.53 4.71314ZM6.50257 26.5291C6.09107 26.0918 5.86971 25.5093 5.88703 24.9091C5.90435 24.3089 6.15894 23.7401 6.59497 23.3273L10.4083 19.7267C10.8464 19.322 11.4266 19.1065 12.0226 19.127C12.6187 19.1475 13.1827 19.4023 13.592 19.8362C14.0013 20.27 14.2229 20.8478 14.2087 21.4441C14.1945 22.0403 13.9457 22.6069 13.5162 23.0208L9.70284 26.6215C9.26595 27.0331 8.68359 27.2545 8.0836 27.2372C7.4836 27.2199 6.91499 26.9652 6.50257 26.5291ZM10.6173 30.8895C10.2054 30.4524 9.98384 29.8698 10.0012 29.2695C10.0185 28.6692 10.2733 28.1003 10.7097 27.6877L14.523 24.0871C14.7393 23.8831 14.9936 23.7236 15.2715 23.6179C15.5493 23.5122 15.8453 23.4622 16.1425 23.4708C16.4396 23.4795 16.7322 23.5466 17.0034 23.6683C17.2747 23.79 17.5193 23.964 17.7233 24.1802C17.9273 24.3965 18.0868 24.6508 18.1925 24.9286C18.2982 25.2065 18.3482 25.5025 18.3395 25.7996C18.3309 26.0968 18.2638 26.3894 18.1421 26.6606C18.0204 26.9318 17.8464 27.1765 17.6302 27.3805L13.8168 30.9819C13.3794 31.3926 12.797 31.6131 12.1972 31.5951C11.5975 31.5771 11.0293 31.322 10.6173 30.8858V30.8895ZM14.7313 35.2491C14.3199 34.8119 14.0987 34.2294 14.1162 33.6294C14.1337 33.0293 14.3884 32.4607 14.8244 32.0481L18.6378 28.4475C19.0782 28.0609 19.6513 27.8601 20.2367 27.8873C20.822 27.9146 21.374 28.1678 21.7766 28.5937C22.1791 29.0196 22.4008 29.585 22.395 30.171C22.3892 30.7569 22.1565 31.3179 21.7456 31.7357L17.9323 35.3364C17.4958 35.7488 16.9133 35.9709 16.313 35.9538C15.7127 35.9368 15.1438 35.682 14.7313 35.2455V35.2491ZM22.0463 39.7019C21.6096 40.1141 21.027 40.3358 20.4268 40.3184C19.8265 40.301 19.2578 40.0459 18.8457 39.6092C18.4335 39.1724 18.2118 38.5899 18.2292 37.9896C18.2466 37.3894 18.5017 36.8207 18.9384 36.4085L22.7518 32.8071C23.1899 32.4024 23.77 32.187 24.3661 32.2074C24.9622 32.2279 25.5261 32.4828 25.9354 32.9166C26.3448 33.3505 26.5664 33.9283 26.5522 34.5245C26.538 35.1208 26.2891 35.6874 25.8596 36.1013L22.0463 39.7019ZM39.3918 26.4161C39.176 26.6208 38.9219 26.7808 38.6441 26.887C38.3663 26.9932 38.0702 27.0434 37.7729 27.0348C37.4756 27.0263 37.1829 26.959 36.9116 26.837C36.6404 26.7149 36.3959 26.5405 36.1923 26.3237L26.4199 15.9691C26.2864 15.8276 26.1021 15.7449 25.9077 15.7393C25.7132 15.7336 25.5245 15.8055 25.383 15.939C25.2415 16.0725 25.1588 16.2568 25.1532 16.4512C25.1475 16.6457 25.2194 16.8344 25.3529 16.9759L35.1275 27.3299C35.5397 27.7665 35.7616 28.349 35.7444 28.9492C35.7271 29.5495 35.4721 30.1183 35.0355 30.5305C34.5988 30.9427 34.0163 31.1646 33.4161 31.1474C32.8159 31.1301 32.2471 30.8751 31.8348 30.4385L22.061 20.0831C21.9949 20.013 21.9156 19.9567 21.8277 19.9172C21.7398 19.8778 21.645 19.8561 21.5487 19.8533C21.4524 19.8505 21.3566 19.8667 21.2665 19.901C21.1765 19.9352 21.0941 19.9869 21.024 20.053C20.954 20.1191 20.8976 20.1984 20.8582 20.2863C20.8188 20.3742 20.797 20.469 20.7943 20.5652C20.7915 20.6615 20.8077 20.7574 20.8419 20.8475C20.8762 20.9375 20.9279 21.0199 20.994 21.0899L30.7649 31.4424C31.1382 31.8376 31.3566 32.3539 31.3802 32.897C31.4039 33.44 31.2311 33.9734 30.8936 34.3996C30.5561 34.8256 30.0765 35.1159 29.5424 35.2173C29.0084 35.3186 28.4557 35.2242 27.9856 34.9514C28.0608 34.4335 28.0254 33.9055 27.8816 33.4023C27.7378 32.8991 27.489 32.4321 27.1515 32.0321C26.814 31.6321 26.3955 31.3083 25.9237 31.0818C25.4519 30.8554 24.9374 30.7316 24.4142 30.7186C23.6076 30.6973 23.9009 31.0024 23.9214 30.1957C23.9359 29.7059 23.8537 29.2181 23.6795 28.7601C23.5053 28.302 23.2425 27.8828 22.9062 27.5264C22.5699 27.17 22.1666 26.8834 21.7195 26.683C21.2723 26.4825 20.7901 26.3722 20.3002 26.3582C19.4936 26.3325 19.7832 26.6515 19.8074 25.8353C19.8217 25.3455 19.7393 24.8577 19.565 24.3997C19.3907 23.9417 19.1279 23.5226 18.7915 23.1662C18.4552 22.8098 18.0519 22.5232 17.6047 22.3227C17.1576 22.1223 16.6753 22.0119 16.1855 21.9978C15.3737 21.9751 15.6685 22.2977 15.6927 21.4749C15.7121 20.7382 15.513 20.0122 15.1206 19.3883C14.7282 18.7645 14.1601 18.2707 13.4876 17.9691C12.8152 17.6674 12.0685 17.5715 11.3417 17.6934C10.6148 17.8152 9.94024 18.1494 9.40291 18.6538C4.15957 23.6031 5.96871 21.8973 5.57784 22.2662L4.53797 21.1662C0.273641 16.643 0.483375 9.5194 5.00731 5.25434C9.53051 0.990002 16.6541 1.20047 20.9184 5.7244L14.9124 11.396C14.3429 11.9421 14.0077 12.688 13.9774 13.4765C13.9041 16.4883 18.384 18.3847 21.1216 15.7938L26.5952 10.6282C26.6652 10.562 26.7475 10.5103 26.8375 10.4759C26.9275 10.4416 27.0234 10.4253 27.1197 10.428C27.216 10.4308 27.3108 10.4524 27.3987 10.4918C27.4867 10.5312 27.566 10.5875 27.6321 10.6575L39.4842 23.2166C39.6884 23.4328 39.848 23.687 39.9538 23.9649C40.0597 24.2427 40.1098 24.5387 40.1012 24.8359C40.0926 25.1331 40.0255 25.4257 39.9038 25.697C39.7821 25.9682 39.6081 26.2121 39.3918 26.4161ZM39.5172 21.1141L28.6984 9.64994C28.5 9.43985 28.2623 9.27088 27.9986 9.15268C27.735 9.03448 27.4507 8.96937 27.1619 8.96106C26.8731 8.95275 26.5855 9.00141 26.3155 9.10426C26.0455 9.20711 25.7984 9.36213 25.5883 9.56047L20.114 14.7275C19.8261 14.9993 19.4874 15.2115 19.1174 15.352C18.7473 15.4925 18.3531 15.5585 17.9575 15.5463C17.5618 15.5341 17.1725 15.4439 16.8118 15.2809C16.4511 15.1179 16.1261 14.8852 15.8555 14.5963C15.7193 14.4518 15.6129 14.282 15.5424 14.0964C15.472 13.9108 15.4388 13.7131 15.4449 13.5146C15.4509 13.3162 15.4961 13.1209 15.5778 12.9399C15.6594 12.759 15.776 12.5959 15.9208 12.4601L23.5474 5.25654C27.9643 1.07507 34.9038 1.15794 39.2195 5.44354C43.5359 9.72914 43.6672 16.6679 39.5172 21.1141Z" fill="#004C8F"/>
</svg>
