<svg width="35" height="35" viewBox="0 0 35 35" fill="none" xmlns="http://www.w3.org/2000/svg">
<g clip-path="url(#clip0_185_3061)">
<path d="M23.5705 24.5856C23.7118 24.5856 23.8474 24.5294 23.9474 24.4294C24.0474 24.3294 24.1036 24.1938 24.1036 24.0525C24.1036 23.9111 24.0474 23.7755 23.9474 23.6755C23.8474 23.5755 23.7118 23.5194 23.5705 23.5194H21.3829C23.3336 22.2919 24.6367 20.1254 24.6367 17.6552C24.6367 15.185 23.3336 13.0185 21.3829 11.7911H28.9551C29.1675 12.8338 29.9911 13.6575 31.0339 13.8698V21.4405C29.9911 21.653 29.1675 22.4765 28.9551 23.5193H26.2359C26.0945 23.5193 25.9589 23.5755 25.859 23.6754C25.759 23.7754 25.7028 23.911 25.7028 24.0524C25.7028 24.1938 25.759 24.3294 25.859 24.4294C25.9589 24.5293 26.0945 24.5855 26.2359 24.5855H29.4345C29.5759 24.5855 29.7115 24.5293 29.8115 24.4294C29.9115 24.3294 29.9676 24.1938 29.9676 24.0524C29.9676 23.1705 30.6851 22.4531 31.567 22.4531C31.7083 22.4531 31.8439 22.3969 31.9439 22.2969C32.0439 22.197 32.1001 22.0614 32.1001 21.92V13.3904C32.1001 13.249 32.0439 13.1134 31.9439 13.0134C31.8439 12.9134 31.7083 12.8573 31.567 12.8573C30.6851 12.8573 29.9676 12.1398 29.9676 11.258C29.9676 11.1166 29.9115 10.981 29.8115 10.881C29.7115 10.781 29.5759 10.7249 29.4345 10.7249H5.97802C5.83663 10.7249 5.70104 10.781 5.60106 10.881C5.50108 10.981 5.44492 11.1166 5.44492 11.258C5.44492 12.1398 4.72749 12.8573 3.8456 12.8573C3.70422 12.8573 3.56862 12.9134 3.46864 13.0134C3.36867 13.1134 3.3125 13.249 3.3125 13.3904V21.92C3.3125 22.0614 3.36867 22.197 3.46864 22.297C3.56862 22.397 3.70422 22.4531 3.8456 22.4531C4.72749 22.4531 5.44492 23.1706 5.44492 24.0525C5.44492 24.1938 5.50108 24.3294 5.60106 24.4294C5.70104 24.5294 5.83663 24.5856 5.97802 24.5856H23.5705ZM6.45748 23.5194C6.24504 22.4766 5.42146 21.653 4.37871 21.4406V13.8699C5.42146 13.6575 6.24511 12.8339 6.45748 11.7911H14.0838C14.02 11.8747 13.9824 11.9753 13.9757 12.0802C13.9691 12.1852 13.9935 12.2897 14.0462 12.3807C14.1938 12.6361 14.5202 12.7231 14.7745 12.5755C15.6616 12.0624 16.6752 11.7911 17.7063 11.7911C20.9398 11.7911 23.5705 14.4218 23.5705 17.6553C23.5705 20.8888 20.9398 23.5194 17.7063 23.5194C14.4728 23.5194 11.8422 20.8888 11.8422 17.6553C11.8422 16.21 12.3724 14.8216 13.3353 13.746C13.5315 13.5266 13.5131 13.1895 13.2936 12.9932C13.0739 12.7964 12.7373 12.816 12.5408 13.0349C11.4028 14.3064 10.776 15.9471 10.776 17.6553C10.776 20.1255 12.079 22.292 14.0298 23.5194H6.45755L6.45748 23.5194Z" fill="#808080"/>
<path d="M32.6367 8.59399H2.78291C1.90102 8.59399 1.18359 9.31142 1.18359 10.1933V25.1202C1.18359 26.0021 1.90102 26.7195 2.78291 26.7195H4.91532C5.05671 26.7195 5.19231 26.6634 5.29229 26.5634C5.39226 26.4634 5.44843 26.3278 5.44843 26.1864C5.44843 26.045 5.39226 25.9095 5.29229 25.8095C5.19231 25.7095 5.05671 25.6533 4.91532 25.6533H2.78291C2.48903 25.6533 2.2498 25.4141 2.2498 25.1202V10.1933C2.2498 9.89943 2.48903 9.6602 2.78291 9.6602H32.6367C32.9306 9.6602 33.1699 9.89943 33.1699 10.1933V25.1202C33.1699 25.4141 32.9306 25.6533 32.6367 25.6533H7.04774C6.90635 25.6533 6.77076 25.7095 6.67078 25.8095C6.5708 25.9095 6.51464 26.045 6.51464 26.1864C6.51464 26.3278 6.5708 26.4634 6.67078 26.5634C6.77076 26.6634 6.90635 26.7195 7.04774 26.7195H32.6367C33.5186 26.7195 34.2361 26.0021 34.2361 25.1202V10.1933C34.2361 9.31142 33.5186 8.59399 32.6367 8.59399Z" fill="#808080"/>
<path d="M11.8438 7.5268H13.9762C14.1176 7.5268 14.2532 7.47063 14.3532 7.37065C14.4531 7.27068 14.5093 7.13508 14.5093 6.99369C14.5093 6.8523 14.4531 6.71671 14.3532 6.61673C14.2532 6.51675 14.1176 6.46059 13.9762 6.46059H13.0914C14.334 5.1049 16.0667 4.32817 17.9229 4.32817H18.1717C20.3734 4.32817 22.4165 5.4217 23.6376 7.25345L23.6615 7.28937C23.7609 7.4385 23.9179 7.5148 24.0809 7.5148C24.1857 7.5148 24.293 7.48328 24.3888 7.41924C24.6338 7.25605 24.6879 6.90693 24.5247 6.66204C23.1055 4.53302 20.7304 3.26196 18.1717 3.26196H17.9228C15.8004 3.26196 13.8159 4.13452 12.3768 5.66306V4.86128C12.3768 4.71989 12.3206 4.58429 12.2206 4.48431C12.1206 4.38434 11.985 4.32817 11.8437 4.32817C11.7023 4.32817 11.5667 4.38434 11.4667 4.48431C11.3667 4.58429 11.3105 4.71989 11.3105 4.86128V6.99369C11.3105 7.13508 11.3667 7.27068 11.4667 7.37065C11.5667 7.47063 11.7023 7.5268 11.8437 7.5268H11.8438ZM24.1052 27.7848H21.9728C21.8314 27.7848 21.6958 27.8409 21.5958 27.9409C21.4958 28.0409 21.4397 28.1765 21.4397 28.3179C21.4397 28.4593 21.4958 28.5949 21.5958 28.6948C21.6958 28.7948 21.8314 28.851 21.9728 28.851H22.8575C21.6149 30.2067 19.8823 30.9834 18.0261 30.9834H17.7772C15.5756 30.9834 13.5325 29.8899 12.3114 28.0581L12.2875 28.0222C12.1243 27.7772 11.8051 27.7291 11.5602 27.8923C11.3152 28.0555 11.2611 28.4046 11.4243 28.6495C12.8435 30.7785 15.2185 32.0496 17.7773 32.0496H18.0261C20.1486 32.0496 22.1331 31.177 23.5722 29.6485V30.4503C23.5722 30.5917 23.6284 30.7273 23.7284 30.8272C23.8283 30.9272 23.9639 30.9834 24.1053 30.9834C24.2467 30.9834 24.3823 30.9272 24.4823 30.8272C24.5823 30.7273 24.6384 30.5917 24.6384 30.4503V28.3179C24.6384 28.1765 24.5823 28.0409 24.4823 27.9409C24.3823 27.8409 24.2467 27.7848 24.1053 27.7848H24.1052Z" fill="#808080"/>
<path d="M17.4649 21.3209L15.2441 17.9022V17.4464H15.5026C15.9178 17.4464 16.2664 17.4118 16.5484 17.3428C16.8382 17.2737 17.0654 17.1598 17.2299 17.0009C17.3944 16.8421 17.4923 16.6245 17.5237 16.3482H15.2441V15.6852H17.5119C17.4571 15.4297 17.3474 15.2225 17.1829 15.0636C17.0184 14.8979 16.7952 14.777 16.5132 14.701C16.239 14.6251 15.9022 14.5871 15.5026 14.5871H15.2441V13.9241H20.1087V14.5871H17.8879C18.0681 14.7183 18.2169 14.8737 18.3344 15.0533C18.4519 15.2328 18.5264 15.4435 18.5577 15.6852H20.1087V16.3482H18.5812C18.5264 16.8524 18.307 17.2461 17.9232 17.5292C17.5472 17.8055 17.0458 17.9816 16.4192 18.0576L18.6634 21.3209H17.4649Z" fill="#808080"/>
</g>
<defs>
<clipPath id="clip0_185_3061">
<rect width="34.1187" height="34.1187" fill="white" transform="translate(0.650391 0.595947)"/>
</clipPath>
</defs>
</svg>
