<svg width="35" height="29" viewBox="0 0 35 29" fill="none" xmlns="http://www.w3.org/2000/svg">
<path d="M27.2667 14.6609L27.2904 14.6903C28.052 15.6329 28.0293 16.6836 27.5079 17.5019C27.0776 18.1774 26.3192 18.68 25.435 18.8531C25.3886 19.0275 25.3131 19.1959 25.2235 19.3489C25.0389 19.6641 24.7628 19.9701 24.4208 20.2151C23.8317 20.6372 23.0082 20.8986 22.1142 20.6644C21.4103 21.5073 20.0829 22.0725 18.7702 21.6917C18.4002 22.1667 17.9003 22.6109 17.2886 22.8307C16.8895 22.9741 16.4446 23.0203 15.9794 22.9131C15.5183 22.807 15.0761 22.5593 14.6593 22.1738L13.7091 21.295L14.505 20.5653L15.4517 21.4409C15.7589 21.725 16.0287 21.8564 16.2502 21.9074C16.4675 21.9574 16.6758 21.9389 16.8828 21.8645C17.3209 21.7071 17.7503 21.2965 18.0678 20.7902L18.3353 20.3637L18.8091 20.5895C19.8093 21.0661 20.9797 20.5421 21.3895 19.7956L21.6404 19.3386L22.1372 19.5655C22.7429 19.8422 23.302 19.7056 23.7346 19.3957C23.9548 19.238 24.1285 19.0425 24.2381 18.8553C24.3538 18.6577 24.37 18.52 24.3621 18.4663L24.2802 17.9118L24.8842 17.8788C25.6076 17.8393 26.229 17.4677 26.5424 16.9758C26.8369 16.5135 26.8745 15.927 26.4149 15.3387L18.7988 8.26165H12.6346L9.89072 6.0381L5.1281 10.8008C5.22259 11.1003 5.86521 12.3937 6.12735 12.7163L5.2315 13.3391C4.95473 12.9985 4.22717 12.2785 4.06973 11.8591L3.64648 11.3298L9.89076 4.97974L13.0988 7.22518H19.2646L27.2667 14.6609Z" fill="#666666"/>
<path fill-rule="evenodd" clip-rule="evenodd" d="M23.8593 4.57044L31.0587 11.4622L31.4128 11.2118C31.0232 11.4918 31.7883 10.9459 31.4128 11.2118C31.225 11.3448 31.0614 11.4603 30.9448 11.5426C30.8882 11.5826 30.8427 11.6147 30.8108 11.6372C30.714 11.7513 30.5641 11.9612 30.356 12.2526C30.2915 12.3429 30.2214 12.441 30.1456 12.5465C29.8143 13.0076 29.4038 13.5643 28.9628 14.0661C28.5303 14.5581 28.0293 15.0436 27.5083 15.3199C27.2432 15.4605 26.94 15.5649 26.6162 15.5632C26.2779 15.5613 25.9601 15.4433 25.6887 15.2099C24.4417 14.1388 22.1712 11.8688 20.5958 10.2938C20.0414 9.73952 19.573 9.27129 19.2658 8.97175C19.2293 8.93624 18.1575 8.16803 17.8291 8.15462C17.5176 8.14189 18.1813 8.13041 17.7184 8.208C17.33 8.27312 16.6611 8.06709 16.2416 8.15462C16.1643 8.17074 15.2611 8.13847 15.1832 8.15462C14.6909 8.2567 15.1101 8.09788 14.654 8.15462C13.598 8.28601 13.0862 8.25038 12.4026 7.70688C12.0576 7.43252 11.6544 7.38981 11.4789 7.04989C11.3122 6.72718 10.8418 6.92368 11.1025 6.51022C11.1814 6.38508 11.2914 6.28913 11.38 6.22144C11.4759 6.14815 11.5875 6.07773 11.7052 6.01086C11.9408 5.87693 12.2381 5.73641 12.5673 5.59568C13.228 5.31327 14.0626 5.01107 14.894 4.73861C15.7263 4.46585 16.5669 4.21913 17.2423 4.04903C17.5791 3.96422 17.8826 3.89645 18.1272 3.85439C18.249 3.83345 18.3647 3.81736 18.4673 3.80965C18.5538 3.80314 18.6884 3.79717 18.8179 3.8284C19.0166 3.8763 19.3611 4.00795 19.7225 4.14961C19.8564 4.20211 19.9975 4.25799 20.1437 4.31587C20.4175 4.42435 20.7092 4.53989 21.005 4.65345C21.4575 4.82713 21.8995 4.98824 22.2649 5.09917C22.4479 5.15475 22.6016 5.19459 22.7217 5.21757C22.7987 5.23231 22.8452 5.23668 22.8679 5.23817C22.883 5.23106 22.9097 5.21779 22.9498 5.19452C23.0375 5.1436 23.1508 5.06808 23.2853 4.97036C23.5531 4.7758 23.4489 4.91557 23.7594 4.65345C23.5421 4.84789 24.0683 4.39264 23.7594 4.65345C22.2571 5.99939 23.8679 4.55636 23.7594 4.65345C22.2571 5.99939 23.7432 4.66832 23.7594 4.65345L23.8593 4.57044ZM24.5542 5.1903C24.3346 5.38658 25.2158 4.81209 24.9075 5.07239C24.5894 5.34094 24.2472 5.61862 23.9473 5.83647C23.7979 5.94496 23.6505 6.04487 23.5165 6.12264C23.4028 6.18862 23.2309 6.28013 23.0514 6.30718M24.5542 5.1903L30.2951 10.6677C30.0505 10.8419 30.325 10.5153 30.1096 10.6677C29.9223 10.8004 30.4113 10.5857 30.2951 10.6677C30.2369 10.7088 30.1905 10.7415 30.1587 10.764L30.1096 10.7986C30.1096 10.7986 30.1095 10.7986 30.434 11.2363L30.1096 10.7986L30.0624 10.8318L30.0233 10.8739C29.8768 11.0316 29.656 11.3414 29.4142 11.6805C29.3565 11.7615 29.2975 11.8442 29.2381 11.9269C28.91 12.3835 28.5253 12.9038 28.1214 13.3633C27.709 13.8325 27.3155 14.1926 26.9787 14.3712C26.8149 14.4581 26.6984 14.4835 26.6224 14.4831C26.5611 14.4828 26.4993 14.4667 26.4217 14.3999C25.2096 13.3588 23.0077 11.1575 21.4353 9.58552C20.8646 9.01504 20.3768 8.52737 20.0492 8.208C19.7134 7.88062 19.2381 7.79022 18.8238 7.7733C18.3927 7.75569 17.9031 7.8137 17.4184 7.89495C17.0057 7.96413 16.8074 7.53802 16.3887 7.62543C16.3126 7.64131 15.7871 7.60994 15.7124 7.62543C15.2177 7.72802 15.0589 7.57506 14.654 7.62543C13.9883 7.70826 13.1684 8.23051 12.6401 7.81051C12.3793 7.60312 12.2025 7.38977 12.1155 7.22128C12.0774 7.14755 12.0644 7.10047 12.0602 7.07407L12.0635 7.07155C12.1059 7.03912 12.1711 6.9963 12.2632 6.94398C12.447 6.83951 12.7012 6.71781 13.0122 6.58488C13.6319 6.31998 14.433 6.0292 15.2471 5.76241C16.0603 5.49591 16.875 5.2571 17.5195 5.09478C17.8427 5.01339 18.1152 4.95322 18.3197 4.91806C18.4225 4.90039 18.4995 4.89053 18.5525 4.88654C18.565 4.8856 18.5747 4.88511 18.5819 4.88485C18.7018 4.91881 18.949 5.01053 19.3092 5.15172C19.4357 5.20134 19.5732 5.25578 19.7175 5.31295C19.9952 5.42293 20.2984 5.54303 20.5991 5.65844C21.0573 5.83432 21.53 6.0073 21.9354 6.1304C22.1378 6.19185 22.3335 6.24401 22.5084 6.27745C22.6682 6.30803 22.8678 6.33482 23.0514 6.30718" fill="#666666"/>
<path fill-rule="evenodd" clip-rule="evenodd" d="M16.1712 18.7385L19.4171 21.1729L18.4294 21.9136L15.1836 19.4793L16.1712 18.7385Z" fill="#666666"/>
<path fill-rule="evenodd" clip-rule="evenodd" d="M18.2109 16.6216L22.5907 20.1251L21.6786 20.8551L17.2988 17.3516L18.2109 16.6216Z" fill="#666666"/>
<path fill-rule="evenodd" clip-rule="evenodd" d="M21.1124 13.4465L24.7081 17.9408L24.0703 18.7384L20.4746 14.2441L21.1124 13.4465Z" fill="#666666"/>
<path fill-rule="evenodd" clip-rule="evenodd" d="M22.5645 4.19531L26.0472 0.712599L34.4176 9.08306L30.9349 12.5658L22.5645 4.19531ZM24.0999 4.19531L30.9349 11.0303L32.8822 9.08306L26.0472 2.24805L24.0999 4.19531Z" fill="#666666"/>
<path fill-rule="evenodd" clip-rule="evenodd" d="M27.006 6.03788L25.7656 4.79749L26.642 3.92114L27.8824 5.16153L27.006 6.03788Z" fill="#666666"/>
<path fill-rule="evenodd" clip-rule="evenodd" d="M0.298828 9.08374L8.66929 0.713278L12.152 4.19599L3.78154 12.5665L0.298828 9.08374ZM1.83428 9.08374L3.78154 11.031L10.6166 4.19599L8.66929 2.24873L1.83428 9.08374Z" fill="#666666"/>
<path fill-rule="evenodd" clip-rule="evenodd" d="M6.7168 5.16174L7.95654 3.92114L8.83353 4.79728L7.59379 6.03788L6.7168 5.16174Z" fill="#666666"/>
<path fill-rule="evenodd" clip-rule="evenodd" d="M10.3756 26.8057C12.5605 27.7676 14.9175 28.2639 17.3 28.2639C19.6825 28.2639 22.0396 27.7676 24.2245 26.8057C26.4094 25.8439 28.3755 24.4372 30.0005 22.673L29.1963 21.9137C27.6742 23.5661 25.8326 24.8838 23.786 25.7847C21.7395 26.6857 19.5317 27.1506 17.3 27.1506C15.0684 27.1506 12.8606 26.6857 10.814 25.7847C8.76744 24.8838 6.92583 23.5661 5.40375 21.9137L4.59961 22.673C6.22457 24.4372 8.19066 25.8439 10.3756 26.8057Z" fill="#666666"/>
<path fill-rule="evenodd" clip-rule="evenodd" d="M6.07466 11.7761C6.75494 11.0202 7.74922 11.3196 8.33454 11.9688C8.64552 12.3138 8.86681 12.7868 8.90469 13.2677C9.33715 13.3101 9.76239 13.556 10.0727 13.9002C10.3837 14.2451 10.605 14.7181 10.6428 15.199C11.0753 15.2414 11.5005 15.4873 11.8109 15.8315C12.1218 16.1765 12.3431 16.6495 12.381 17.1304C12.8135 17.1728 13.2387 17.4186 13.549 17.7628C14.1354 18.4133 14.4029 19.5191 13.723 20.2745L12.6784 21.4353C12.4011 21.7412 12.0257 21.9135 11.635 21.9135C11.2442 21.9135 10.8694 21.7419 10.5921 21.436L5.03 15.2557C4.75471 14.9476 4.59961 14.5304 4.59961 14.0963C4.59961 13.6622 4.7541 13.2456 5.02938 12.9376L6.07466 11.7761ZM11.9849 18.3432L11.2891 17.5701C11.4326 17.4107 11.4893 17.0197 11.1157 16.6052C10.741 16.1896 10.3898 16.2529 10.2467 16.4119L9.55098 15.6388C9.69449 15.4793 9.75119 15.0884 9.37754 14.6739C9.0028 14.2582 8.65167 14.3215 8.50857 14.4805L7.81282 13.7075C7.95633 13.548 8.01303 13.157 7.63938 12.7426C7.26464 12.3269 6.91351 12.3902 6.77041 12.5492L5.72708 13.7085C5.63514 13.8117 5.58355 13.951 5.58355 14.0963C5.58355 14.2415 5.63514 14.3809 5.72709 14.4841L11.2854 20.6602C11.3783 20.7624 11.5042 20.8202 11.635 20.8202C11.7657 20.8202 11.8911 20.7629 11.984 20.6607L13.0273 19.5015C13.1708 19.342 13.2275 18.951 12.8539 18.5366C12.4791 18.1209 12.128 18.1842 11.9849 18.3432Z" fill="#666666"/>
</svg>
