<svg width="26" height="27" viewBox="0 0 26 27" fill="none" xmlns="http://www.w3.org/2000/svg">
<path fill-rule="evenodd" clip-rule="evenodd" d="M14.793 8.7522H25.5901V22.8613H14.793V8.7522ZM15.7319 9.70874V21.9047H24.6512V9.70874H15.7319Z" fill="#004C8F"/>
<path fill-rule="evenodd" clip-rule="evenodd" d="M25.2373 14.6118H15.2617V13.6553H25.2373V14.6118Z" fill="#004C8F"/>
<path fill-rule="evenodd" clip-rule="evenodd" d="M25.2373 18.5566H15.2617V17.6001H25.2373V18.5566Z" fill="#004C8F"/>
<path fill-rule="evenodd" clip-rule="evenodd" d="M6.14959 6.88657C5.86116 6.83131 5.58337 7.02472 5.52912 7.31857C5.47487 7.61243 5.66471 7.89545 5.95314 7.95072C6.24157 8.00598 6.51936 7.81257 6.57361 7.51872C6.62786 7.22486 6.43802 6.94184 6.14959 6.88657ZM4.48463 7.11843C4.64737 6.23687 5.48075 5.65663 6.34603 5.82243C7.21132 5.98823 7.78084 6.83729 7.6181 7.71886C7.45536 8.60042 6.62198 9.18066 5.75669 9.01486C4.89141 8.84906 4.32188 8 4.48463 7.11843Z" fill="#004C8F"/>
<path fill-rule="evenodd" clip-rule="evenodd" d="M9.54412 11.9452C9.25569 11.8899 8.9779 12.0833 8.92365 12.3772C8.8694 12.671 9.05924 12.954 9.34767 13.0093C9.6361 13.0646 9.91389 12.8712 9.96814 12.5773C10.0224 12.2835 9.83255 12.0004 9.54412 11.9452ZM7.87916 12.177C8.0419 11.2955 8.87528 10.7152 9.74056 10.881C10.6058 11.0468 11.1754 11.8959 11.0126 12.7775C10.8499 13.659 10.0165 14.2393 9.15122 14.0735C8.28594 13.9076 7.71642 13.0586 7.87916 12.177Z" fill="#004C8F"/>
<path fill-rule="evenodd" clip-rule="evenodd" d="M10.7977 6.76775C11.0076 6.97674 11.0114 7.31951 10.8063 7.53335L5.44966 13.1176C5.24453 13.3315 4.90808 13.3354 4.69819 13.1264C4.48829 12.9174 4.48443 12.5747 4.68956 12.3608L10.0462 6.77654C10.2513 6.5627 10.5878 6.55876 10.7977 6.76775Z" fill="#004C8F"/>
<path fill-rule="evenodd" clip-rule="evenodd" d="M1.80056 0.861527C1.83012 0.861806 1.85741 0.862063 1.88178 0.862062H15.441L20.4247 5.43177V7.91657H19.4858V5.85778L15.0807 1.81861H1.88179C1.88179 1.81861 1.8818 1.81861 1.88179 1.81861C1.84039 1.81861 1.8017 1.81829 1.76499 1.81799C1.65122 1.81706 1.55628 1.81629 1.45717 1.82557C1.33395 1.83712 1.25268 1.86178 1.19596 1.89584C1.12527 1.93829 0.942905 2.08508 0.942905 2.77516V24.3145L0.941712 24.3315C0.926908 24.5427 0.966371 24.8563 1.1083 25.0984C1.23104 25.3079 1.44264 25.4931 1.88179 25.4931H18.3122C18.7165 25.4931 18.9728 25.4372 19.1367 25.3618C19.2868 25.2927 19.3736 25.2013 19.4356 25.0791C19.5051 24.9422 19.5524 24.748 19.5776 24.4652C19.6028 24.183 19.6032 23.8552 19.6032 23.4604H20.5421V23.4751C20.5421 23.8524 20.5421 24.2219 20.5126 24.5518C20.4828 24.8856 20.4201 25.222 20.2695 25.5185C20.1115 25.8298 19.8683 26.0747 19.5233 26.2335C19.192 26.386 18.7881 26.4497 18.3122 26.4497H1.88179C1.10038 26.4497 0.588267 26.0769 0.302202 25.5889C0.0399533 25.1414 -0.0171479 24.6283 0.00402365 24.2815V2.77516C0.00402365 1.93475 0.232423 1.36414 0.719192 1.0718C0.941205 0.938471 1.17535 0.891392 1.3712 0.873043C1.52213 0.858903 1.68013 0.860392 1.80056 0.861527Z" fill="#004C8F"/>
</svg>
