<svg width="28" height="26" viewBox="0 0 28 26" fill="none" xmlns="http://www.w3.org/2000/svg">
<path d="M24.7878 24.3761H7.21612C7.01409 24.3761 6.85156 24.2136 6.85156 24.0116V12.8318C6.85156 12.6298 7.01409 12.4673 7.21612 12.4673C7.41814 12.4673 7.58068 12.6298 7.58068 12.8318V23.647H24.4232V12.8318C24.4232 12.6298 24.5857 12.4673 24.7878 12.4673C24.9898 12.4673 25.1523 12.6298 25.1523 12.8318V24.0116C25.1523 24.2136 24.9883 24.3761 24.7878 24.3761Z" fill="#004C8F"/>
<path d="M26.5398 14.3721C26.2891 14.3721 26.0476 14.2885 25.8471 14.1305L16.001 6.3837L6.15494 14.1305C5.66735 14.5133 4.9595 14.4298 4.57671 13.9422C4.3914 13.7067 4.30785 13.4121 4.34431 13.1143C4.37925 12.8166 4.52963 12.5493 4.76507 12.364L15.7762 3.70117C15.9084 3.59636 16.0952 3.59636 16.2273 3.70117L27.2385 12.364C27.7261 12.7467 27.8096 13.4546 27.4268 13.9422C27.2415 14.1776 26.9742 14.328 26.6765 14.3629C26.6309 14.369 26.5853 14.3721 26.5398 14.3721ZM16.001 5.55585C16.08 5.55585 16.1605 5.58167 16.2258 5.63332L26.2982 13.5564C26.3818 13.6217 26.4851 13.6505 26.5899 13.6384C26.6947 13.6262 26.7889 13.5731 26.8542 13.491C26.9894 13.3194 26.959 13.0703 26.7873 12.9366L16.001 4.45155L5.21469 12.9366C5.13114 13.0019 5.0795 13.0961 5.06735 13.2009C5.05519 13.3057 5.08406 13.409 5.14937 13.4926C5.28456 13.6642 5.53216 13.6931 5.7038 13.5594L15.7762 5.63636C15.8415 5.58167 15.922 5.55585 16.001 5.55585Z" fill="#004C8F"/>
<path d="M22.905 9.78309C22.703 9.78309 22.5404 9.62056 22.5404 9.41853V5.22765H20.7328V7.42259C20.7328 7.62461 20.5703 7.78714 20.3683 7.78714C20.1663 7.78714 20.0037 7.62461 20.0037 7.42259V4.86309C20.0037 4.66107 20.1663 4.49854 20.3683 4.49854H22.905C23.107 4.49854 23.2696 4.66107 23.2696 4.86309V9.41853C23.2696 9.62056 23.107 9.78309 22.905 9.78309ZM20.7784 24.376H11.224C11.0235 24.376 10.8594 24.2135 10.8594 24.013C10.8579 23.255 10.8883 21.3623 11.2316 20.138C11.3242 19.8054 11.4382 19.5335 11.5885 19.2813C11.7161 19.0687 12.0822 18.5325 12.7399 18.1633C13.3475 17.8216 13.9308 17.7699 14.3121 17.7882C14.3835 17.7912 14.4518 17.8155 14.5096 17.858L15.9602 18.9168L17.4959 17.8535C17.5521 17.814 17.6189 17.7927 17.6873 17.7897C18.0685 17.7714 18.6518 17.8231 19.2594 18.1649C19.9171 18.5355 20.2847 19.0702 20.4108 19.2828C20.5612 19.535 20.6751 19.8069 20.7678 20.1395C21.1111 21.3638 21.143 23.258 21.1399 24.0145C21.143 24.2135 20.9789 24.376 20.7784 24.376ZM15.989 23.6469H20.4123C20.4017 22.8494 20.344 21.3183 20.069 20.334C19.9931 20.0621 19.9065 19.8525 19.788 19.655C19.6908 19.4925 19.4098 19.0823 18.904 18.7983C18.4969 18.5689 18.1065 18.5142 17.824 18.5127L16.1652 19.6611C16.0377 19.7492 15.8675 19.7476 15.743 19.6565L14.1754 18.5127C13.8928 18.5142 13.504 18.5704 13.0999 18.7983C12.5941 19.0823 12.3131 19.4925 12.2159 19.655C12.0974 19.8525 12.0108 20.0621 11.9349 20.3355C11.6599 21.3183 11.6022 22.8509 11.5916 23.6484L15.989 23.6469Z" fill="#004C8F"/>
<path d="M13.2357 24.3761C13.0336 24.3761 12.8711 24.2136 12.8711 24.0116V21.329C12.8711 21.127 13.0336 20.9645 13.2357 20.9645C13.4377 20.9645 13.6002 21.127 13.6002 21.329V24.0116C13.6002 24.2136 13.4377 24.3761 13.2357 24.3761ZM18.7648 24.3761C18.5627 24.3761 18.4002 24.2136 18.4002 24.0116V21.329C18.4002 21.127 18.5627 20.9645 18.7648 20.9645C18.9668 20.9645 19.1293 21.127 19.1293 21.329V24.0116C19.1293 24.2136 18.9653 24.3761 18.7648 24.3761ZM16.0139 17.9949C15.3227 17.9949 14.6741 17.6987 14.1896 17.1625C13.7141 16.6354 13.4513 15.9382 13.4513 15.1969V14.167C13.4513 14.0121 13.5501 13.8739 13.6974 13.8222C13.8159 13.7812 14.1653 13.6278 14.3521 13.4197C14.4827 13.2754 14.6969 13.2556 14.8473 13.3771C14.867 13.3908 15.1222 13.5761 15.5597 13.6673C16.1658 13.7964 16.822 13.6977 17.5086 13.3741C17.6513 13.3073 17.82 13.3392 17.9293 13.4531C17.9992 13.526 18.221 13.7417 18.4063 13.8556C18.5141 13.9225 18.5794 14.0394 18.5794 14.1655V15.1939C18.5794 15.9351 18.3167 16.6323 17.8412 17.1594C17.3536 17.6987 16.705 17.9949 16.0139 17.9949ZM14.1789 14.4101V15.1954C14.1789 16.3361 15.0022 17.2642 16.0124 17.2642C17.0225 17.2642 17.8458 16.3361 17.8458 15.1954V14.3584C17.7486 14.284 17.6574 14.2065 17.583 14.1382C16.1627 14.7214 15.1268 14.3614 14.6635 14.1184C14.4964 14.2475 14.3187 14.3447 14.1789 14.4101Z" fill="#004C8F"/>
<path d="M13.8165 14.5329C13.6752 14.5329 13.5415 14.4509 13.4823 14.3126C13.3577 14.024 13.338 13.7202 13.3213 13.4529C13.3076 13.2342 13.2909 12.9623 13.3547 12.6934C13.4109 12.4549 13.5491 12.2043 13.777 11.9263C13.8119 11.8838 13.8499 11.8412 13.8879 11.8002C14.4955 11.1501 15.4904 10.8964 15.6833 10.8509C16.0615 10.7643 16.4246 10.7324 16.7618 10.7582C16.9988 10.7764 17.2008 10.8099 17.377 10.86C17.6337 10.9314 17.8342 11.0711 17.9588 11.264C18.021 11.3597 18.056 11.4539 18.0879 11.5359C18.1122 11.5982 18.135 11.659 18.1577 11.6848C18.1972 11.7304 18.2534 11.7759 18.3172 11.8261C18.3947 11.8868 18.4828 11.9567 18.5648 12.0493C18.7593 12.2681 18.978 12.6357 19.0129 13.0093C19.0448 13.3602 18.9096 13.6595 18.7866 13.8828C18.7836 13.8888 18.776 13.901 18.7669 13.9207C18.5603 14.3187 18.5162 14.381 18.4555 14.4357C18.3066 14.5709 18.0757 14.5618 17.9405 14.4129C17.8145 14.2762 17.8145 14.0681 17.9314 13.9299C17.9496 13.901 17.9967 13.8205 18.1183 13.585C18.1319 13.5577 18.1426 13.5395 18.1456 13.5334C18.2534 13.3375 18.296 13.1962 18.2853 13.0762C18.2717 12.9212 18.1593 12.6919 18.018 12.5339C17.9785 12.4899 17.9253 12.4473 17.8646 12.3987C17.781 12.3334 17.6869 12.2575 17.6003 12.1557C17.4985 12.0342 17.4469 11.9035 17.4074 11.7987C17.3861 11.744 17.3664 11.6924 17.3451 11.6605C17.3101 11.6058 17.2251 11.5754 17.178 11.5618C17.0474 11.5253 16.8909 11.4995 16.7026 11.4858C16.4383 11.4661 16.1496 11.4904 15.8428 11.5618C15.4099 11.662 14.775 11.9142 14.4165 12.2985C14.3891 12.3273 14.3633 12.3577 14.3375 12.3881C14.1461 12.622 14.0808 12.7754 14.0595 12.862C14.02 13.0261 14.0337 13.2281 14.0443 13.4073C14.058 13.6261 14.0717 13.8509 14.1461 14.0225C14.2266 14.2078 14.1415 14.422 13.9562 14.5025C13.9137 14.5223 13.8636 14.5329 13.8165 14.5329ZM14.6914 18.8028C14.6398 18.8028 14.5866 18.7921 14.5365 18.7678C14.3542 18.6828 14.2752 18.4656 14.3618 18.2833C14.421 18.1572 14.5213 17.9035 14.5289 17.6316C14.5319 17.5299 14.5198 17.4904 14.4955 17.4023C14.4894 17.3825 14.4833 17.3612 14.4788 17.3385C14.4286 17.144 14.5441 16.945 14.74 16.8934C14.9345 16.8418 15.1334 16.9587 15.1851 17.1547C15.1896 17.1729 15.1942 17.1911 15.2003 17.2078C15.2307 17.3172 15.2641 17.4402 15.2595 17.6499C15.2489 18.0342 15.1258 18.3744 15.0241 18.5916C14.9603 18.7253 14.8281 18.8028 14.6914 18.8028ZM17.2858 18.8058C17.1537 18.8058 17.0261 18.7329 16.9608 18.6083C16.7907 18.2772 16.6965 17.9309 16.6889 17.6058C16.6843 17.4402 16.7056 17.3293 16.7269 17.2428C16.7633 17.0802 16.9091 16.9587 17.0823 16.9587C17.2843 16.9587 17.4469 17.1212 17.4469 17.3233C17.4469 17.3537 17.4438 17.384 17.4362 17.4129C17.4256 17.4569 17.4165 17.4995 17.418 17.5861C17.4256 17.8595 17.5258 18.1101 17.6109 18.2742C17.7036 18.4534 17.6322 18.6737 17.4529 18.7648C17.3998 18.7921 17.342 18.8058 17.2858 18.8058Z" fill="#004C8F"/>
<path d="M14.7194 0.200349C13.548 -0.194921 12.4295 0.37735 11.6976 0.926956L9.51596 2.56533L4.91915 1.32515L2.46492 1.94771L6.62837 4.73783L4.65772 6.23996L2.19923 5.84145L0.823696 6.87439L2.55989 8.31002C2.45072 8.51514 2.37005 8.78873 2.54361 9.02234C2.77027 9.32741 3.26795 9.40137 4.02619 9.24352C4.18168 9.21116 4.34815 9.16906 4.52544 9.11719C5.34399 8.87777 6.20187 8.47605 6.71099 8.09373L14.5097 2.23718C15.1832 1.73131 15.4785 1.2859 15.4123 0.875416C15.378 0.662521 15.2299 0.372506 14.7194 0.200349ZM14.1268 1.72189L6.32816 7.57847C5.89441 7.90421 5.14453 8.25758 4.41775 8.4787C3.6749 8.70469 3.25223 8.70303 3.10211 8.65816C3.12192 8.61409 3.16128 8.54314 3.23934 8.43841L3.42243 8.19276L1.85876 6.89981L2.36587 6.51895L4.82701 6.91795L7.72998 4.70516L4.0171 2.21696L4.91579 1.98899L9.65107 3.26649L12.0804 1.4422C12.9676 0.775942 13.7876 0.563118 14.5178 0.809413C14.7018 0.87146 14.7766 0.943459 14.7819 0.976678C14.7824 0.978956 14.8105 1.20849 14.1268 1.72189Z" fill="#004C8F"/>
</svg>
