<svg width="24" height="24" viewBox="0 0 24 24" fill="none" xmlns="http://www.w3.org/2000/svg">
<g clip-path="url(#clip0_974_14447)">
<path d="M2.49316 8.06152H3.32227V7.23242H2.07861C1.96867 7.23242 1.86322 7.2761 1.78548 7.35384C1.70774 7.43158 1.66406 7.53703 1.66406 7.64697V8.89062H2.49316V8.06152ZM2.49316 15.5234H1.66406V16.7671C1.66406 16.9962 1.84968 17.1816 2.07861 17.1816H3.32227V16.3525H2.49316V15.5234Z" fill="#004C8F"/>
<path d="M0.0078125 5.98877V18.4253C0.0078125 18.6544 0.193428 18.8398 0.422363 18.8398H21.979C22.2081 18.8398 22.3936 18.6544 22.3936 18.4253V5.98877C22.3936 5.75983 22.2081 5.57422 21.979 5.57422H0.422363C0.312418 5.57422 0.206975 5.61789 0.129232 5.69564C0.0514883 5.77338 0.0078125 5.87882 0.0078125 5.98877ZM0.836914 6.40332H21.5645V18.0107H0.836914V6.40332Z" fill="#004C8F"/>
<path d="M20.3188 10.1344C18.9459 10.1332 17.833 9.02031 17.8315 7.64711C17.8315 7.41818 17.6461 7.23256 17.417 7.23256H4.98047C4.87052 7.23256 4.76508 7.27624 4.68734 7.35398C4.60959 7.43173 4.56592 7.53717 4.56592 7.64711C4.56473 9.02031 3.45181 10.1332 2.07861 10.1344C1.96867 10.1344 1.86322 10.1781 1.78548 10.2558C1.70774 10.3336 1.66406 10.439 1.66406 10.549V13.8654C1.66406 14.0945 1.84968 14.2799 2.07861 14.2799C3.45181 14.2814 4.56473 15.3942 4.56592 16.7672C4.56592 16.9964 4.75153 17.1818 4.98047 17.1818H17.417C17.6461 17.1818 17.8315 16.9964 17.8315 16.7672C17.833 15.3942 18.9459 14.2814 20.3188 14.2799C20.548 14.2799 20.7334 14.0945 20.7334 13.8654V10.549C20.7334 10.32 20.548 10.1344 20.3188 10.1344ZM19.9043 13.4765C18.4026 13.6684 17.2201 14.851 17.0281 16.3527H5.36932C5.17743 14.851 3.99508 13.6685 2.49316 13.4765V10.9378C3.99513 10.7459 5.17743 9.56358 5.36932 8.06166H17.0281C17.22 9.56363 18.4026 10.7459 19.9043 10.9378V13.4765ZM20.3188 7.23256H19.0752V8.06166H19.9043V8.89077H20.7334V7.64711C20.7334 7.41818 20.548 7.23256 20.3188 7.23256ZM19.9043 16.3527H19.0752V17.1818H20.3188C20.548 17.1818 20.7334 16.9964 20.7334 16.7672V15.5236H19.9043V16.3527ZM5.60229 2.51218L6.01685 3.22935C7.40757 2.42743 8.96556 1.95953 10.568 1.86255C12.1704 1.76556 13.7735 2.04215 15.2508 2.67048L13.5008 3.54519L13.8714 4.28723L16.3587 3.04358C16.4077 3.01947 16.4513 2.98594 16.4873 2.94491C16.5232 2.90388 16.5507 2.85616 16.5681 2.80449C16.5855 2.7528 16.5926 2.69818 16.5889 2.64375C16.5852 2.58933 16.5708 2.53617 16.5466 2.4873L15.3029 0L14.5609 0.370608L15.2655 1.78008C13.703 1.16988 12.0232 0.918853 10.3506 1.04558C8.67789 1.1723 7.05507 1.67353 5.60229 2.51218ZM16.3806 21.4878L15.9661 20.7706C14.5754 21.5725 13.0176 22.0404 11.4153 22.1374C9.81295 22.2343 8.21001 21.9578 6.73283 21.3295L8.48275 20.4547L8.11209 19.7126L5.62478 20.9563C5.41974 21.0587 5.33652 21.3079 5.43917 21.5127L6.68282 24L7.42466 23.6294L6.72008 22.2199C9.88445 23.4551 13.4387 23.1859 16.3807 21.4878H16.3806Z" fill="#004C8F"/>
<path d="M11.361 14.7657C11.265 14.7657 11.2011 14.7337 11.1371 14.6698L9.21833 12.751C9.12239 12.655 9.09041 12.5271 9.15437 12.3992C9.18635 12.2713 9.31427 12.2073 9.44219 12.2073H10.4016C10.6574 12.2073 10.9133 12.1114 11.0732 11.9195C11.265 11.7596 11.361 11.5038 11.361 11.2479C11.361 10.9921 11.265 10.7362 11.0732 10.5763C10.9133 10.3845 10.6574 10.2885 10.4016 10.2885H9.44219C9.25031 10.2885 9.12239 10.1606 9.12239 9.96873C9.12239 9.77685 9.25031 9.64893 9.44219 9.64893H12.96C13.1519 9.64893 13.2798 9.77685 13.2798 9.96873C13.2798 10.1606 13.1519 10.2885 12.96 10.2885H11.6808C11.8727 10.5763 12.0006 10.8961 12.0006 11.2479C12.0006 11.6637 11.8407 12.0794 11.5209 12.3672C11.2331 12.687 10.8173 12.8469 10.4016 12.8469H10.2097L11.5848 14.2221C11.7128 14.35 11.7128 14.5419 11.5848 14.6698C11.5209 14.7337 11.4569 14.7657 11.361 14.7657Z" fill="#004C8F"/>
<path d="M12.9587 11.5678H9.44089C9.24901 11.5678 9.12109 11.4399 9.12109 11.248C9.12109 11.0561 9.24901 10.9282 9.44089 10.9282H12.9587C13.1506 10.9282 13.2785 11.0561 13.2785 11.248C13.2785 11.4399 13.1506 11.5678 12.9587 11.5678Z" fill="#004C8F"/>
</g>
<defs>
<clipPath id="clip0_974_14447">
<rect width="24" height="24" fill="white"/>
</clipPath>
</defs>
</svg>
