<svg width="14" height="14" viewBox="0 0 14 14" fill="none" xmlns="http://www.w3.org/2000/svg">
<path d="M0.591439 0.925781H13.408C13.7345 0.925781 14 1.19075 14 1.51775V10.516C14 10.8425 13.735 11.108 13.408 11.108H6.30237L3.57702 13.1441C3.20901 13.4191 2.9083 13.2682 2.9083 12.8087V11.1075H0.591965C0.265491 11.1075 9.53674e-07 10.8425 9.53674e-07 10.5155V1.51722C9.53674e-07 1.19075 0.264965 0.925781 0.591439 0.925781ZM10.2285 6.86172C10.3487 6.86172 10.4677 6.83804 10.5787 6.79205C10.6898 6.74605 10.7907 6.67863 10.8757 6.59364C10.9607 6.50865 11.0281 6.40775 11.0741 6.2967C11.1201 6.18565 11.1437 6.06663 11.1437 5.94643C11.1437 5.82624 11.1201 5.70722 11.0741 5.59617C11.0281 5.48512 10.9607 5.38422 10.8757 5.29923C10.7907 5.21424 10.6898 5.14682 10.5787 5.10082C10.4677 5.05483 10.3487 5.03115 10.2285 5.03115C9.98572 5.03115 9.75291 5.12758 9.58126 5.29923C9.40961 5.47088 9.31318 5.70369 9.31318 5.94643C9.31318 6.18918 9.40961 6.42199 9.58126 6.59364C9.75291 6.76529 9.98572 6.86172 10.2285 6.86172ZM6.99947 6.86172C7.11967 6.86172 7.23869 6.83804 7.34974 6.79205C7.46079 6.74605 7.56169 6.67863 7.64668 6.59364C7.73167 6.50865 7.79909 6.40775 7.84509 6.2967C7.89108 6.18565 7.91476 6.06663 7.91476 5.94643C7.91476 5.82624 7.89108 5.70722 7.84509 5.59617C7.79909 5.48512 7.73167 5.38422 7.64668 5.29923C7.56169 5.21424 7.46079 5.14682 7.34974 5.10082C7.23869 5.05483 7.11967 5.03115 6.99947 5.03115C6.75673 5.03115 6.52392 5.12758 6.35227 5.29923C6.18062 5.47088 6.08419 5.70369 6.08419 5.94643C6.08419 6.18918 6.18062 6.42199 6.35227 6.59364C6.52392 6.76529 6.75673 6.86172 6.99947 6.86172ZM3.77048 6.86172C3.89068 6.86172 4.0097 6.83804 4.12075 6.79205C4.2318 6.74605 4.3327 6.67863 4.41769 6.59364C4.50268 6.50865 4.5701 6.40775 4.6161 6.2967C4.66209 6.18565 4.68577 6.06663 4.68577 5.94643C4.68577 5.82624 4.66209 5.70722 4.6161 5.59617C4.5701 5.48512 4.50268 5.38422 4.41769 5.29923C4.3327 5.21424 4.2318 5.14682 4.12075 5.10082C4.0097 5.05483 3.89068 5.03115 3.77048 5.03115C3.52774 5.03115 3.29493 5.12758 3.12328 5.29923C2.95163 5.47088 2.8552 5.70369 2.8552 5.94643C2.8552 6.18918 2.95163 6.42199 3.12328 6.59364C3.29493 6.76529 3.52774 6.86172 3.77048 6.86172Z" fill="white"/>
</svg>
