<svg width="20" height="22" viewBox="0 0 20 22" fill="none" xmlns="http://www.w3.org/2000/svg">
<path d="M16.5461 11.1534C16.4676 11.0731 16.3738 11.0093 16.2704 10.9656C16.1669 10.9219 16.0558 10.8992 15.9435 10.8989C15.8313 10.8986 15.72 10.9207 15.6163 10.9638C15.5127 11.0069 15.4186 11.0702 15.3396 11.1501C15.2607 11.2299 15.1984 11.3247 15.1564 11.4288C15.1144 11.533 15.0936 11.6444 15.0952 11.7567C15.0967 11.869 15.1206 11.9799 15.1654 12.0828C15.2102 12.1858 15.2751 12.2788 15.3562 12.3564C16.0741 13.0628 16.6437 13.9055 17.0315 14.835C17.4193 15.7645 17.6175 16.7621 17.6145 17.7693C17.6145 18.8042 14.648 20.3077 9.99914 20.3077C5.35028 20.3077 2.38375 18.8034 2.38375 17.7676C2.3809 16.7673 2.57648 15.7765 2.95917 14.8523C3.34186 13.9282 3.90405 13.0891 4.6132 12.3837C4.69341 12.3055 4.75729 12.2122 4.80114 12.1091C4.84499 12.006 4.86794 11.8953 4.86865 11.7833C4.86936 11.6712 4.84782 11.5602 4.80527 11.4566C4.76273 11.3529 4.70004 11.2588 4.62083 11.1796C4.54162 11.1004 4.44747 11.0377 4.34384 10.9951C4.24021 10.9526 4.12917 10.931 4.01715 10.9318C3.90513 10.9325 3.79437 10.9554 3.69128 10.9993C3.5882 11.0431 3.49485 11.107 3.41665 11.1872C2.5497 12.0496 1.86244 13.0754 1.39465 14.2052C0.926867 15.335 0.687852 16.5464 0.691446 17.7693C0.691446 20.5172 5.4866 22 9.99914 22C14.5117 22 19.3068 20.5172 19.3068 17.7693C19.3106 16.5382 19.0683 15.3188 18.5942 14.1827C18.1201 13.0465 17.4238 12.0166 16.5461 11.1534Z" fill="white"/>
<path d="M9.99925 11.8462C11.1707 11.8462 12.3159 11.4988 13.2899 10.8479C14.264 10.1971 15.0232 9.27204 15.4715 8.18974C15.9198 7.10744 16.0371 5.91651 15.8085 4.76754C15.58 3.61858 15.0159 2.56319 14.1875 1.73483C13.3591 0.906474 12.3037 0.342356 11.1548 0.113813C10.0058 -0.11473 8.81489 0.00256637 7.73258 0.45087C6.65028 0.899173 5.72523 1.65835 5.07439 2.63239C4.42355 3.60644 4.07617 4.7516 4.07617 5.92308C4.07799 7.49342 4.7026 8.99892 5.813 10.1093C6.9234 11.2197 8.42891 11.8443 9.99925 11.8462ZM9.99925 1.69231C10.836 1.69231 11.654 1.94044 12.3497 2.40532C13.0455 2.87021 13.5878 3.53096 13.908 4.30403C14.2282 5.07711 14.312 5.92777 14.1487 6.74846C13.9855 7.56915 13.5825 8.323 12.9909 8.91468C12.3992 9.50637 11.6453 9.90931 10.8246 10.0726C10.0039 10.2358 9.15328 10.152 8.3802 9.8318C7.60713 9.51158 6.94638 8.96931 6.48149 8.27357C6.01661 7.57782 5.76848 6.75985 5.76848 5.92308C5.7698 4.80141 6.21597 3.72607 7.0091 2.93293C7.80224 2.1398 8.87758 1.69363 9.99925 1.69231Z" fill="white"/>
</svg>
