<svg width="12" height="10" viewBox="0 0 12 10" fill="none" xmlns="http://www.w3.org/2000/svg">
<path d="M11.7562 2.25415C11.6882 2.01176 11.5559 1.79232 11.3732 1.61915C11.1853 1.44065 10.9551 1.31297 10.7042 1.24815C9.76517 1.00065 6.00317 1.00065 6.00317 1.00065C4.43483 0.982805 2.86688 1.06129 1.30817 1.23565C1.05726 1.30525 0.82745 1.43579 0.639168 1.61565C0.454168 1.79365 0.320168 2.01315 0.250168 2.25365C0.0820144 3.15952 0.000313976 4.07932 0.00616797 5.00065C0.000167967 5.92115 0.081668 6.84065 0.250168 7.74765C0.318668 7.98715 0.452168 8.20565 0.637668 8.38215C0.823168 8.55865 1.05417 8.68615 1.30817 8.75365C2.25967 9.00065 6.00317 9.00065 6.00317 9.00065C7.5735 9.01852 9.14345 8.94004 10.7042 8.76565C10.9551 8.70083 11.1853 8.57315 11.3732 8.39465C11.5558 8.22151 11.688 8.00204 11.7557 7.75965C11.9282 6.85413 12.0121 5.93394 12.0062 5.01215C12.0191 4.08645 11.9354 3.16193 11.7562 2.25365V2.25415ZM4.80717 6.71265V3.28915L7.93717 5.00115L4.80717 6.71265Z" fill="#004C8F"/>
</svg>
