<svg width="18" height="18" viewBox="0 0 18 18" fill="none" xmlns="http://www.w3.org/2000/svg">
<path d="M13.7046 7.00751H9.30923C8.96597 7.00751 8.68132 6.72286 8.68132 6.3796C8.68132 6.03635 8.96597 5.7517 9.30923 5.7517H13.7046C13.8711 5.7517 14.0308 5.81785 14.1486 5.93561C14.2663 6.05336 14.3325 6.21307 14.3325 6.3796C14.3325 6.54613 14.2663 6.70585 14.1486 6.8236C14.0308 6.94136 13.8711 7.00751 13.7046 7.00751ZM4.91388 7.64379C4.75481 7.64379 4.59574 7.58519 4.47016 7.4596L3.84225 6.8317C3.59946 6.58891 3.59946 6.18705 3.84225 5.94426C4.08504 5.70146 4.4869 5.70146 4.72969 5.94426L4.91388 6.12844L6.35388 4.68844C6.59667 4.44565 6.99853 4.44565 7.24132 4.68844C7.48411 4.93123 7.48411 5.33309 7.24132 5.57588L5.3576 7.4596C5.23996 7.57739 5.08035 7.64364 4.91388 7.64379ZM13.7046 12.868H9.30923C8.96597 12.868 8.68132 12.5833 8.68132 12.2401C8.68132 11.8968 8.96597 11.6122 9.30923 11.6122H13.7046C13.8711 11.6122 14.0308 11.6783 14.1486 11.7961C14.2663 11.9138 14.3325 12.0735 14.3325 12.2401C14.3325 12.4066 14.2663 12.5663 14.1486 12.6841C14.0308 12.8018 13.8711 12.868 13.7046 12.868ZM4.91388 13.5043C4.75481 13.5043 4.59574 13.4457 4.47016 13.3201L3.84225 12.6922C3.59946 12.4494 3.59946 12.0475 3.84225 11.8047C4.08504 11.5619 4.4869 11.5619 4.72969 11.8047L4.91388 11.9889L6.35388 10.5489C6.59667 10.3061 6.99853 10.3061 7.24132 10.5489C7.48411 10.7917 7.48411 11.1936 7.24132 11.4363L5.3576 13.3201C5.23996 13.4379 5.08035 13.5041 4.91388 13.5043Z" fill="#004C8F"/>
<path d="M11.5116 18H6.48837C1.94233 18 0 16.0577 0 11.5116V6.48837C0 1.94233 1.94233 0 6.48837 0H11.5116C16.0577 0 18 1.94233 18 6.48837V11.5116C18 16.0577 16.0577 18 11.5116 18ZM6.48837 1.25581C2.62884 1.25581 1.25581 2.62884 1.25581 6.48837V11.5116C1.25581 15.3712 2.62884 16.7442 6.48837 16.7442H11.5116C15.3712 16.7442 16.7442 15.3712 16.7442 11.5116V6.48837C16.7442 2.62884 15.3712 1.25581 11.5116 1.25581H6.48837Z" fill="#004C8F"/>
</svg>
