<svg width="13" height="13" viewBox="0 0 13 13" fill="none" xmlns="http://www.w3.org/2000/svg">
<path d="M11.6877 9.17925C12.2661 8.23698 12.5716 7.15265 12.5701 6.04703C12.5716 4.94137 12.2661 3.85685 11.6877 2.91454L11.6845 2.90928C11.1479 2.03468 10.396 1.31229 9.50059 0.811153C8.60519 0.310016 7.59624 0.046875 6.57015 0.046875C5.54406 0.046875 4.53511 0.310016 3.63971 0.811153C2.74432 1.31229 1.9924 2.03468 1.45581 2.90928L1.45257 2.91454C0.875623 3.85748 0.570312 4.94145 0.570312 6.0469C0.570312 7.15234 0.875623 8.23631 1.45257 9.17925L1.45594 9.18464C1.99255 10.0592 2.74447 10.7816 3.63986 11.2827C4.53525 11.7838 5.54418 12.0469 6.57025 12.0469C7.59633 12.0469 8.60525 11.7837 9.50063 11.2826C10.396 10.7815 11.1479 10.0591 11.6845 9.18451L11.6877 9.17925ZM7.33706 11.0185C7.22271 11.1288 7.09108 11.2197 6.9474 11.2876C6.8295 11.3436 6.70061 11.3727 6.57008 11.3727C6.43955 11.3727 6.31066 11.3436 6.19276 11.2876C5.9194 11.148 5.6854 10.942 5.51214 10.6887C5.15833 10.1773 4.89614 9.60838 4.73728 9.00721C5.34761 8.96964 5.95856 8.95049 6.57015 8.94977C7.18147 8.94977 7.79247 8.96892 8.40315 9.00721C8.3152 9.31629 8.20536 9.61871 8.07444 9.91218C7.90205 10.3249 7.65168 10.7005 7.33706 11.0185ZM1.25612 6.38397H3.67617C3.69195 7.05924 3.76515 7.73195 3.895 8.39481C3.23344 8.45306 2.57359 8.53306 1.91544 8.63481C1.53 7.94332 1.30469 7.17413 1.25612 6.38397ZM1.91544 3.45912C2.57332 3.56105 3.2334 3.64105 3.89568 3.69911C3.7656 4.3619 3.69226 5.03457 3.67644 5.70982H1.25612C1.30471 4.9197 1.53001 4.15056 1.91544 3.45912ZM5.80324 1.07534C5.91759 0.964991 6.04921 0.874085 6.1929 0.806218C6.3108 0.750201 6.43969 0.721138 6.57022 0.721138C6.70075 0.721138 6.82964 0.750201 6.94754 0.806218C7.22089 0.945839 7.4549 1.15175 7.62815 1.40513C7.98197 1.91645 8.24416 2.48542 8.40302 3.08658C7.79269 3.12416 7.18174 3.1433 6.57015 3.14402C5.95883 3.14402 5.34783 3.12488 4.73715 3.08658C4.82509 2.7775 4.93494 2.47508 5.06586 2.18161C5.23825 1.76888 5.48862 1.39326 5.80324 1.07534ZM11.8842 5.70982H9.46412C9.44835 5.03455 9.37514 4.36184 9.2453 3.69898C9.90686 3.64073 10.5667 3.56073 11.2249 3.45898C11.6103 4.15047 11.8356 4.91966 11.8842 5.70982ZM4.57306 8.34236C4.44124 7.69741 4.36679 7.04205 4.35059 6.38397H8.78984C8.7738 7.04209 8.69949 7.69749 8.56778 8.3425C7.90262 8.29881 7.23675 8.27652 6.57015 8.27562C5.90409 8.27562 5.2384 8.29787 4.57306 8.34236ZM8.56724 3.75143C8.69906 4.39638 8.77351 5.05174 8.78971 5.70982H4.35059C4.36664 5.0517 4.44095 4.3963 4.57265 3.75129C5.23781 3.79498 5.90369 3.81727 6.57028 3.81817C7.23634 3.81817 7.90204 3.79588 8.56738 3.75129L8.56724 3.75143ZM9.46385 6.38397H11.8842C11.8356 7.17409 11.6103 7.94323 11.2249 8.63467C10.5669 8.53274 9.90681 8.45274 9.24462 8.39468C9.3747 7.73189 9.44805 7.05922 9.46385 6.38397ZM10.8206 2.83863C10.2454 2.9216 9.66844 2.98731 9.08984 3.03575C8.98586 2.64853 8.85174 2.27003 8.68872 1.90373C8.53986 1.56666 8.35255 1.24793 8.13053 0.953856C9.20345 1.28293 10.145 1.94258 10.8206 2.83863ZM2.80437 2.28098C3.41986 1.66491 4.17707 1.20922 5.00964 0.953856C4.99696 0.970305 4.98402 0.985945 4.97161 1.00253C4.54366 1.61855 4.23194 2.30762 4.05181 3.03575C3.47312 2.98677 2.89578 2.92106 2.31979 2.83863C2.46832 2.64184 2.63023 2.45552 2.80437 2.28098ZM2.31979 9.25516C2.89497 9.17219 3.47191 9.10649 4.0506 9.05804C4.15458 9.44526 4.28869 9.82376 4.45171 10.1901C4.60058 10.5271 4.78788 10.8459 5.00991 11.1399C3.93699 10.8109 2.99547 10.1512 2.31979 9.25516ZM10.3362 9.81281C9.72072 10.4289 8.9635 10.8846 8.13093 11.1399C8.14361 11.1235 8.15655 11.1078 8.16895 11.0913C8.5969 10.4752 8.90863 9.78617 9.08876 9.05804C9.66745 9.10703 10.2448 9.17273 10.8208 9.25516C10.6722 9.45195 10.5103 9.63827 10.3362 9.81281Z" fill="white"/>
</svg>
