<svg width="22" height="23" viewBox="0 0 22 23" fill="none" xmlns="http://www.w3.org/2000/svg">
<path d="M20.3824 17.2428C21.4428 15.5153 22.0028 13.5273 22 11.5003C22.0028 9.47318 21.4428 7.48486 20.3824 5.75726L20.3764 5.74762C19.3927 4.14414 18.0141 2.81973 16.3725 1.90096C14.7309 0.982191 12.8811 0.499756 10.9999 0.499756C9.11872 0.499756 7.26894 0.982191 5.62735 1.90096C3.98576 2.81973 2.60721 4.14414 1.62344 5.74762L1.61751 5.75726C0.559747 7.48602 0 9.47334 0 11.5C0 13.5267 0.559747 15.514 1.61751 17.2428L1.62369 17.2527C2.60749 18.8561 3.98605 20.1804 5.62763 21.0991C7.26921 22.0179 9.11895 22.5002 11.0001 22.5002C12.8813 22.5002 14.731 22.0178 16.3726 21.099C18.0141 20.1803 19.3927 18.8559 20.3764 17.2524L20.3824 17.2428ZM12.406 20.6147C12.1963 20.817 11.955 20.9837 11.6916 21.1081C11.4754 21.2108 11.2391 21.2641 10.9998 21.2641C10.7605 21.2641 10.5242 21.2108 10.308 21.1081C9.80688 20.8522 9.37786 20.4747 9.06022 20.0101C8.41154 19.0727 7.93084 18.0295 7.6396 16.9274C8.75856 16.8585 9.87867 16.8234 10.9999 16.8221C12.1207 16.8221 13.2409 16.8572 14.3605 16.9274C14.1993 17.494 13.9979 18.0485 13.7579 18.5865C13.4418 19.3432 12.9828 20.0319 12.406 20.6147ZM1.25735 12.118H5.6942C5.72311 13.356 5.85733 14.5894 6.09539 15.8046C4.8825 15.9114 3.67275 16.0581 2.46612 16.2446C1.75946 14.9769 1.34638 13.5667 1.25735 12.118ZM2.46612 6.75567C3.67225 6.94255 4.88242 7.08921 6.09663 7.19567C5.85815 8.41081 5.72368 9.64407 5.6947 10.882H1.25735C1.34642 9.43346 1.75949 8.02334 2.46612 6.75567ZM9.59391 2.38531C9.80355 2.183 10.0449 2.01634 10.3083 1.89191C10.5244 1.78921 10.7607 1.73593 11.0001 1.73593C11.2394 1.73593 11.4757 1.78921 11.6918 1.89191C12.193 2.14789 12.622 2.5254 12.9397 2.98994C13.5883 3.92739 14.069 4.97051 14.3603 6.07268C13.2413 6.14156 12.1212 6.17666 10.9999 6.17798C9.87917 6.17798 8.75897 6.14288 7.63936 6.07268C7.80059 5.50602 8.00199 4.95156 8.24201 4.41352C8.55807 3.65683 9.01708 2.96819 9.59391 2.38531ZM20.7425 10.882H16.3057C16.2767 9.64402 16.1425 8.41069 15.9045 7.19542C17.1174 7.08864 18.3271 6.94197 19.5338 6.75542C20.2404 8.02317 20.6535 9.43338 20.7425 10.882ZM7.33852 15.7085C7.09684 14.526 6.96036 13.3245 6.93066 12.118H15.0695C15.04 13.3246 14.9038 14.5262 14.6623 15.7087C13.4429 15.6286 12.2221 15.5878 10.9999 15.5861C9.77881 15.5861 8.55834 15.6269 7.33852 15.7085ZM14.6613 7.29158C14.903 8.47402 15.0395 9.67553 15.0692 10.882H6.93066C6.96008 9.67547 7.09632 8.47387 7.33778 7.29133C8.55726 7.37142 9.77806 7.41229 11.0002 7.41394C12.2213 7.41394 13.4418 7.37307 14.6616 7.29133L14.6613 7.29158ZM16.3052 12.118H20.7425C20.6535 13.5666 20.2404 14.9767 19.5338 16.2444C18.3275 16.0575 17.1173 15.9108 15.9032 15.8044C16.1417 14.5892 16.2762 13.356 16.3052 12.118ZM18.7927 5.61809C17.738 5.77019 16.6802 5.89066 15.6195 5.97948C15.4288 5.26956 15.1829 4.57563 14.8841 3.90406C14.6111 3.28609 14.2677 2.70173 13.8607 2.16259C15.8278 2.7659 17.5539 3.97529 18.7927 5.61809ZM4.09586 4.5957C5.22427 3.46621 6.61253 2.63076 8.13893 2.16259C8.1157 2.19275 8.09197 2.22142 8.06922 2.25183C7.28463 3.38122 6.71312 4.64454 6.38288 5.97948C5.32193 5.88967 4.26345 5.76921 3.20745 5.61809C3.47976 5.2573 3.7766 4.9157 4.09586 4.5957ZM3.20745 17.382C4.26197 17.2299 5.31971 17.1094 6.38065 17.0206C6.57129 17.7305 6.81717 18.4244 7.11605 19.096C7.38898 19.714 7.73238 20.2983 8.13943 20.8375C6.17236 20.2342 4.44621 19.0248 3.20745 17.382ZM17.9045 18.4044C16.7761 19.5339 15.3878 20.3693 13.8614 20.8375C13.8847 20.8073 13.9084 20.7786 13.9311 20.7482C14.7157 19.6188 15.2872 18.3555 15.6175 17.0206C16.6784 17.1104 17.7369 17.2309 18.7929 17.382C18.5206 17.7428 18.2238 18.0844 17.9045 18.4044Z" fill="#0F4D8B"/>
</svg>
