<?xml version="1.0" encoding="UTF-8"?>
<svg id="Layer_1" xmlns="http://www.w3.org/2000/svg" xmlns:xlink="http://www.w3.org/1999/xlink" viewBox="0 0 14.57 7.65">
  <defs>
    <style>
      .cls-1 {
        fill: url(#linear-gradient-2);
      }

      .cls-2 {
        fill: url(#linear-gradient);
      }
    </style>
    <linearGradient id="linear-gradient" x1="2.64" y1="4.85" x2="12.31" y2="4.85" gradientUnits="userSpaceOnUse">
      <stop offset="0" stop-color="#04b6fe"/>
      <stop offset="1" stop-color="#0666b5"/>
    </linearGradient>
    <linearGradient id="linear-gradient-2" x1="0" y1="2.76" x2="14.57" y2="2.76" xlink:href="#linear-gradient"/>
  </defs>
  <g>
    <g>
      <path d="M4.39,6.51c-.25,0-.48-.04-.69-.12-.21-.08-.4-.2-.56-.35-.16-.15-.28-.33-.37-.53-.09-.2-.13-.43-.13-.67s.04-.47.13-.67c.09-.2.21-.38.37-.53.16-.15.34-.27.56-.35.21-.08.45-.12.69-.12.28,0,.53.05.76.15.23.1.42.24.57.43l-.48.44c-.11-.13-.23-.22-.37-.29s-.29-.1-.44-.1c-.15,0-.29.02-.42.08s-.23.12-.33.21c-.09.09-.16.2-.21.33-.05.13-.08.27-.08.42s.03.29.08.42.12.24.21.33c.09.09.2.16.33.21s.26.08.42.08c.16,0,.31-.03.44-.1s.26-.16.37-.29l.48.44c-.15.19-.34.33-.57.43-.23.1-.48.15-.77.15Z"/>
      <path d="M6.97,6.46h-.75v-3.23h.75v3.23ZM8.49,5.14h-1.58v-.63h1.58v.63ZM8.43,3.23h.75v3.23h-.75v-3.23Z"/>
      <path d="M9.95,6.46v-3.23h.75v2.62h1.61v.61h-2.36Z"/>
    </g>
    <g>
      <path class="cls-2" d="M4.39,6.51c-.25,0-.48-.04-.69-.12-.21-.08-.4-.2-.56-.35-.16-.15-.28-.33-.37-.53-.09-.2-.13-.43-.13-.67s.04-.47.13-.67c.09-.2.21-.38.37-.53.16-.15.34-.27.56-.35.21-.08.45-.12.69-.12.28,0,.53.05.76.15.23.1.42.24.57.43l-.48.44c-.11-.13-.23-.22-.37-.29s-.29-.1-.44-.1c-.15,0-.29.02-.42.08s-.23.12-.33.21c-.09.09-.16.2-.21.33-.05.13-.08.27-.08.42s.03.29.08.42.12.24.21.33c.09.09.2.16.33.21s.26.08.42.08c.16,0,.31-.03.44-.1s.26-.16.37-.29l.48.44c-.15.19-.34.33-.57.43-.23.1-.48.15-.77.15Z"/>
      <path class="cls-2" d="M6.97,6.46h-.75v-3.23h.75v3.23ZM8.49,5.14h-1.58v-.63h1.58v.63ZM8.43,3.23h.75v3.23h-.75v-3.23Z"/>
      <path class="cls-2" d="M9.95,6.46v-3.23h.75v2.62h1.61v.61h-2.36Z"/>
    </g>
  </g>
  <polygon class="cls-1" points="1.89 5.53 0 5.53 7.29 0 14.57 5.53 12.79 5.53 7.29 1.36 1.89 5.53"/>
</svg>