<svg width="22" height="22" viewBox="0 0 22 22" fill="none" xmlns="http://www.w3.org/2000/svg">
<path d="M0.639509 10.3646L2.20138 8.86495V2.68983C2.20138 2.59037 2.24089 2.49499 2.31122 2.42466C2.38154 2.35434 2.47693 2.31483 2.57638 2.31483H5.35813C5.45759 2.31483 5.55297 2.35434 5.6233 2.42466C5.69362 2.49499 5.73313 2.59037 5.73313 2.68983V5.4742L10.739 0.667078C10.8087 0.599981 10.9017 0.5625 10.9985 0.5625C11.0953 0.5625 11.1883 0.599981 11.258 0.667078L21.3575 10.3646C21.4114 10.4164 21.4486 10.4832 21.4643 10.5563C21.48 10.6295 21.4735 10.7056 21.4455 10.775C21.4176 10.8444 21.3695 10.9039 21.3075 10.9457C21.2455 10.9876 21.1724 11.01 21.0976 11.01H19.6603V21.0622C19.6603 21.1617 19.6207 21.257 19.5504 21.3274C19.4801 21.3977 19.3847 21.4372 19.2853 21.4372H2.71176C2.6123 21.4372 2.51692 21.3977 2.44659 21.3274C2.37627 21.257 2.33676 21.1617 2.33676 21.0622V11.01H0.899384C0.824659 11.0099 0.751659 10.9875 0.689751 10.9456C0.627842 10.9038 0.579845 10.8444 0.55192 10.7751C0.523994 10.7058 0.517412 10.6297 0.533018 10.5566C0.548624 10.4836 0.585707 10.4164 0.639509 10.3646ZM4.98351 3.06483H2.95176V8.14533L4.98351 6.19458V3.06483ZM2.71213 10.2603C2.81159 10.2603 2.90697 10.2998 2.9773 10.3702C3.04762 10.4405 3.08713 10.5359 3.08713 10.6353V20.6876H18.9103V10.635C18.9103 10.5355 18.9498 10.4401 19.0201 10.3698C19.0904 10.2995 19.1858 10.26 19.2853 10.26H20.1658L10.9985 1.4572L1.83126 10.26L2.71213 10.2603Z" fill="#004C8F"/>
<path d="M7.17694 17.4365C7.2133 17.4698 7.25586 17.4955 7.30217 17.5123C7.34848 17.5291 7.39764 17.5365 7.44685 17.5343C7.49605 17.5321 7.54434 17.5202 7.58894 17.4993C7.63355 17.4784 7.6736 17.4489 7.70681 17.4125L14.8464 9.59267C14.8796 9.55628 14.9053 9.5137 14.9221 9.46738C14.9388 9.42105 14.9463 9.37189 14.944 9.32268C14.9417 9.27348 14.9298 9.2252 14.9089 9.18061C14.888 9.13602 14.8585 9.09598 14.8221 9.06279C14.7857 9.0296 14.7431 9.0039 14.6968 8.98716C14.6504 8.97043 14.6013 8.96298 14.5521 8.96524C14.5029 8.9675 14.4546 8.97944 14.41 9.00036C14.3654 9.02128 14.3254 9.05078 14.2922 9.08717L7.15294 16.9067C7.11971 16.943 7.09398 16.9856 7.0772 17.0319C7.06043 17.0782 7.05294 17.1274 7.05517 17.1766C7.0574 17.2258 7.0693 17.2741 7.09019 17.3187C7.11109 17.3633 7.14056 17.4033 7.17694 17.4365ZM8.78981 12.4348C9.13288 12.4347 9.46823 12.3329 9.75345 12.1423C10.0387 11.9516 10.261 11.6807 10.3922 11.3637C10.5235 11.0468 10.5578 10.698 10.4908 10.3615C10.4239 10.025 10.2587 9.71598 10.0161 9.47339C9.7735 9.2308 9.46444 9.06559 9.12796 8.99864C8.79149 8.9317 8.44272 8.96602 8.12575 9.09727C7.80878 9.22852 7.53785 9.45081 7.3472 9.73603C7.15656 10.0213 7.05476 10.3566 7.05469 10.6997C7.05508 11.1597 7.23802 11.6008 7.56333 11.9261C7.88865 12.2515 8.32975 12.4344 8.78981 12.4348ZM8.78981 9.71492C8.98456 9.71499 9.17492 9.77281 9.33681 9.88106C9.4987 9.98931 9.62486 10.1431 9.69934 10.3231C9.77381 10.503 9.79326 10.701 9.75522 10.892C9.71718 11.083 9.62336 11.2584 9.48563 11.3961C9.34789 11.5338 9.17243 11.6276 8.98141 11.6655C8.7904 11.7035 8.59242 11.684 8.4125 11.6094C8.23259 11.5349 8.07881 11.4087 7.97062 11.2467C7.86243 11.0848 7.80469 10.8944 7.80469 10.6997C7.80508 10.4386 7.90901 10.1883 8.09369 10.0037C8.27836 9.81905 8.5287 9.71522 8.78981 9.71492ZM13.2096 14.0645C12.8665 14.0646 12.5311 14.1664 12.2459 14.3571C11.9607 14.5477 11.7384 14.8186 11.6072 15.1356C11.4759 15.4526 11.4416 15.8013 11.5085 16.1378C11.5755 16.4743 11.7407 16.7834 11.9833 17.0259C12.2259 17.2685 12.5349 17.4337 12.8714 17.5007C13.2079 17.5676 13.5567 17.5333 13.8736 17.4021C14.1906 17.2708 14.4615 17.0485 14.6522 16.7633C14.8428 16.4781 14.9446 16.1427 14.9447 15.7997C14.9443 15.3396 14.7614 14.8985 14.436 14.5732C14.1107 14.2479 13.6696 14.0649 13.2096 14.0645ZM13.2096 16.7844C13.0148 16.7843 12.8245 16.7265 12.6626 16.6183C12.5007 16.51 12.3745 16.3562 12.3 16.1763C12.2256 15.9963 12.2061 15.7983 12.2442 15.6073C12.2822 15.4163 12.376 15.2409 12.5137 15.1032C12.6515 14.9655 12.8269 14.8718 13.018 14.8338C13.209 14.7958 13.407 14.8154 13.5869 14.8899C13.7668 14.9645 13.9206 15.0907 14.0288 15.2526C14.1369 15.4145 14.1947 15.6049 14.1947 15.7997C14.1943 16.0608 14.0904 16.3111 13.9057 16.4957C13.721 16.6803 13.4707 16.7841 13.2096 16.7844Z" fill="#004C8F"/>
</svg>
