<svg width="36" height="45" viewBox="0 0 36 45" fill="none" xmlns="http://www.w3.org/2000/svg">
<path d="M18.0006 44.25C17.8284 44.2484 17.661 44.1935 17.5213 44.0929C16.8377 43.5664 0.714844 31.1286 0.714844 17.5357C0.714844 12.9513 2.53601 8.55457 5.77771 5.31287C9.01941 2.07117 13.4161 0.25 18.0006 0.25C22.585 0.25 26.9817 2.07117 30.2234 5.31287C33.4651 8.55457 35.2863 12.9513 35.2863 17.5357C35.2863 31.1286 19.1634 43.5664 18.4798 44.0929C18.3402 44.1935 18.1727 44.2484 18.0006 44.25ZM18.0006 1.82143C13.8329 1.82143 9.83588 3.47704 6.88888 6.42404C3.94188 9.37104 2.28627 13.368 2.28627 17.5357C2.28627 29.0936 15.3213 40.3214 18.0006 42.4586C20.6798 40.3214 33.7148 29.0857 33.7148 17.5357C33.7148 13.368 32.0592 9.37104 29.1122 6.42404C26.1652 3.47704 22.1682 1.82143 18.0006 1.82143Z" fill="#004C8F"/>
<path d="M12.6736 25.7784C12.5072 25.779 12.3448 25.7267 12.21 25.6291C12.0996 25.5493 12.0119 25.4421 11.9554 25.3182C11.899 25.1942 11.8757 25.0577 11.8879 24.922L12.4065 19.422L8.75289 15.3206C8.66206 15.2183 8.59951 15.094 8.57143 14.9602C8.54334 14.8263 8.55069 14.6874 8.59276 14.5572C8.63482 14.4271 8.71015 14.3101 8.81127 14.218C8.91239 14.1259 9.03581 14.0618 9.16932 14.032L14.5358 12.822L17.3093 8.1077C17.3779 7.98895 17.4763 7.89021 17.5949 7.82129C17.7134 7.75237 17.8479 7.71567 17.985 7.71484C18.1214 7.71487 18.2554 7.75038 18.3739 7.81788C18.4923 7.88538 18.5912 7.98255 18.6608 8.09984L21.4579 12.8141L26.8243 13.9927C26.958 14.0211 27.0819 14.0839 27.1838 14.1748C27.2858 14.2658 27.3623 14.3817 27.4058 14.5113C27.4525 14.6443 27.4625 14.7874 27.4349 14.9257C27.4072 15.0639 27.3429 15.1922 27.2486 15.297L23.6108 19.422L24.1608 24.922C24.1744 25.0589 24.1518 25.1971 24.0953 25.3226C24.0387 25.448 23.9502 25.5565 23.8386 25.637C23.727 25.7195 23.5954 25.771 23.4574 25.7862C23.3194 25.8014 23.1798 25.7797 23.0529 25.7234L18.0007 23.5077L12.9643 25.7156C12.8718 25.7532 12.7734 25.7744 12.6736 25.7784ZM10.8193 15.297L13.8129 18.6598C13.885 18.7405 13.9396 18.8352 13.9734 18.9379C14.0072 19.0407 14.0194 19.1493 14.0093 19.257L13.585 23.7356L17.7022 21.9284C17.8013 21.8852 17.9083 21.8628 18.0165 21.8628C18.1246 21.8628 18.2316 21.8852 18.3307 21.9284L22.4636 23.7198L22.0158 19.2334C22.0046 19.1263 22.0155 19.018 22.048 18.9152C22.0804 18.8125 22.1336 18.7176 22.2043 18.6363L25.1822 15.2656L20.79 14.2991C20.6847 14.2771 20.585 14.2336 20.4972 14.1714C20.4093 14.1093 20.3352 14.0297 20.2793 13.9377L18.0007 10.0641L15.7222 13.9456C15.668 14.0382 15.5955 14.1187 15.509 14.1823C15.4225 14.2458 15.3239 14.2909 15.2193 14.3148L10.8193 15.297Z" fill="#004C8F"/>
</svg>
