<svg width="24" height="24" viewBox="0 0 24 24" fill="none" xmlns="http://www.w3.org/2000/svg">
<path d="M9.35695 22.074C9.35695 22.281 9.19251 22.4507 8.98551 22.4507C8.77851 22.4507 8.60882 22.281 8.60882 22.074V17.3565C8.60882 17.0383 8.74663 16.7516 8.96957 16.5448C9.19633 16.3353 9.49411 16.2197 9.80282 16.2212H14.1911C14.5147 16.2212 14.8119 16.3431 15.0239 16.5448C15.2467 16.7518 15.3851 17.0383 15.3851 17.3565V22.074C15.3851 22.281 15.2204 22.4507 15.0134 22.4507C14.8064 22.4507 14.6368 22.281 14.6368 22.074V17.3565C14.6368 17.2558 14.5942 17.1602 14.5199 17.0914C14.4291 17.0116 14.312 16.9681 14.1911 16.9693H12.3708V22.0742C12.3708 22.2812 12.2066 22.4509 11.9996 22.4509C11.8998 22.4505 11.8042 22.4107 11.7336 22.3401C11.6631 22.2696 11.6233 22.174 11.6229 22.0742V16.9691H9.80282C9.67551 16.9691 9.56395 17.0171 9.4792 17.0912C9.40495 17.16 9.35713 17.2556 9.35713 17.3563L9.35695 22.074ZM8.30113 11.1908H10.7525C10.8014 11.1905 10.8498 11.1999 10.895 11.2185C10.9402 11.237 10.9812 11.2644 11.0158 11.2989C11.0503 11.3335 11.0777 11.3745 11.0962 11.4197C11.1148 11.4649 11.1242 11.5133 11.1239 11.5622V13.8441C11.1242 13.8929 11.1148 13.9413 11.0963 13.9865C11.0777 14.0317 11.0504 14.0727 11.0158 14.1072C10.9812 14.1418 10.9402 14.1691 10.895 14.1876C10.8498 14.2061 10.8014 14.2155 10.7525 14.2151H8.30113C8.25229 14.2155 8.20386 14.2061 8.15867 14.1876C8.11347 14.1691 8.0724 14.1418 8.03784 14.1072C8.00329 14.0727 7.97593 14.0317 7.95737 13.9865C7.9388 13.9413 7.9294 13.8929 7.9297 13.8441V11.5622C7.92937 11.5133 7.93876 11.4649 7.95731 11.4197C7.97586 11.3745 8.00321 11.3334 8.03777 11.2988C8.07232 11.2643 8.1134 11.2369 8.15861 11.2184C8.20382 11.1998 8.25227 11.1904 8.30113 11.1908ZM8.30113 6.65382H10.7525C10.8014 6.65354 10.8498 6.66296 10.895 6.68153C10.9402 6.7001 10.9812 6.72745 11.0158 6.762C11.0503 6.79654 11.0777 6.8376 11.0962 6.88279C11.1148 6.92797 11.1242 6.9764 11.1239 7.02525V9.30694C11.1243 9.35581 11.1149 9.40425 11.0963 9.44946C11.0778 9.49468 11.0504 9.53575 11.0159 9.57031C10.9813 9.60486 10.9402 9.63221 10.895 9.65076C10.8498 9.66931 10.8014 9.6787 10.7525 9.67838H8.30113C8.25228 9.67865 8.20386 9.66923 8.15867 9.65066C8.11348 9.63209 8.07242 9.60474 8.03788 9.5702C8.00333 9.53565 7.97598 9.49459 7.95741 9.44941C7.93884 9.40422 7.92942 9.35579 7.9297 9.30694V7.02544C7.92937 6.97656 7.93876 6.92811 7.95731 6.88289C7.97586 6.83767 8.0032 6.79658 8.03775 6.76201C8.07231 6.72744 8.11338 6.70007 8.15859 6.6815C8.20381 6.66293 8.25226 6.65352 8.30113 6.65382ZM10.3758 7.40232H8.67782V8.93025H10.3758V7.40232ZM14.4721 8.93025C14.6791 8.93025 14.8434 9.10013 14.8434 9.30713C14.8434 9.51413 14.6789 9.67856 14.4721 9.67856H13.2464C13.0394 9.67856 12.8696 9.51394 12.8696 9.30713V7.02544C12.8696 6.81844 13.0393 6.654 13.2464 6.654C13.2953 6.65373 13.3437 6.66315 13.3889 6.68172C13.4341 6.70029 13.4752 6.72764 13.5097 6.76218C13.5442 6.79673 13.5716 6.83779 13.5902 6.88297C13.6087 6.92816 13.6182 6.97659 13.6179 7.02544V8.93025H14.4721ZM13.2464 11.1908H15.6926C15.8996 11.1908 16.0693 11.3554 16.0693 11.5622V13.8441C16.0693 14.0511 15.8996 14.2151 15.6926 14.2151H13.2464C13.0394 14.2151 12.8696 14.0509 12.8696 13.8441V11.5622C12.8696 11.3554 13.0394 11.1908 13.2464 11.1908ZM15.3213 11.9391H13.6181V13.4672H15.3213V11.9391ZM10.3758 11.9391H8.67782V13.4672H10.3758V11.9391ZM18.3031 11.4934C18.1972 11.6685 17.9692 11.7321 17.7939 11.6259C17.7379 11.5913 17.6906 11.5441 17.6559 11.4881L14.4403 6.03844C14.2756 5.75719 14.1378 5.39644 14.0531 5.07807C13.9675 4.74523 13.9247 4.40285 13.9256 4.05919C13.9246 3.52594 14.0291 2.99775 14.2331 2.50506C14.4371 2.01236 14.7365 1.56488 15.1141 1.18838C15.4908 0.810942 15.9383 0.511653 16.431 0.307712C16.9236 0.103771 17.4517 -0.000800907 17.9849 4.61852e-06C19.1045 4.61852e-06 20.1179 0.45638 20.8556 1.18857C21.5878 1.92638 22.0443 2.93963 22.0443 4.05938C22.0443 4.40963 21.9965 4.74919 21.9118 5.07825C21.8266 5.418 21.6939 5.73619 21.5296 6.03338L18.3031 11.4934ZM17.9849 10.5699L20.882 5.66157C21.1539 5.17131 21.2964 4.61981 21.2958 4.05919C21.2958 3.14644 20.9248 2.31882 20.3249 1.71919C20.018 1.41124 19.6534 1.16693 19.2518 1.00029C18.8502 0.833645 18.4197 0.747953 17.9849 0.748129C17.5493 0.747353 17.1178 0.832752 16.7153 0.999408C16.3128 1.16606 15.9473 1.41069 15.6397 1.71919C15.0451 2.31882 14.6739 3.14644 14.6739 4.05919C14.6739 4.35113 14.7108 4.62675 14.7748 4.89225C14.8436 5.15738 14.9497 5.41219 15.077 5.65088L17.9849 10.5699Z" fill="#004C8F"/>
<path d="M17.9851 1.89453C18.5795 1.89453 19.1206 2.13884 19.5131 2.53128C19.7154 2.7309 19.876 2.96885 19.9853 3.23123C20.0947 3.49361 20.1507 3.77515 20.15 4.05941C20.15 4.65884 19.9057 5.20034 19.5131 5.59297C19.1204 5.98034 18.5795 6.22428 17.9851 6.22428C17.4107 6.22419 16.8596 5.9973 16.4515 5.59297C16.0589 5.20034 15.8202 4.65903 15.8202 4.05941C15.8202 3.45978 16.0589 2.91866 16.4515 2.53128C16.6526 2.32928 16.8916 2.16903 17.1547 2.05976C17.4179 1.95048 17.7001 1.89432 17.9851 1.89453ZM18.9826 3.05666C18.7172 2.79165 18.3575 2.64281 17.9824 2.64281C17.6073 2.64281 17.2476 2.79165 16.9822 3.05666C16.7274 3.31672 16.5684 3.66678 16.5684 4.05959C16.5684 4.45222 16.7274 4.80772 16.9822 5.06253C17.2476 5.32754 17.6073 5.47638 17.9824 5.47638C18.3575 5.47638 18.7172 5.32754 18.9826 5.06253C19.1159 4.93178 19.2216 4.77568 19.2936 4.60343C19.3655 4.43119 19.4023 4.24627 19.4017 4.05959C19.4017 3.66678 19.2425 3.31672 18.9826 3.05666ZM19.7146 18.2271C19.5076 18.2271 19.3436 18.0574 19.3436 17.8504C19.3436 17.6434 19.5078 17.4788 19.7146 17.4788H21.0731C21.5401 17.4788 21.9541 17.7495 22.1345 18.1793L23.8908 22.4562C23.9651 22.6365 23.9915 22.8171 23.9703 22.9975C23.9332 23.3637 23.6889 23.703 23.3652 23.8729C23.1996 23.958 23.0158 24.0017 22.8296 24.0004H1.16973C0.983443 24.0017 0.799595 23.958 0.633859 23.8729C0.304797 23.703 0.0661091 23.3637 0.023734 22.9975C0.00829984 22.8133 0.0355035 22.6281 0.103234 22.4562L1.86498 18.1793C2.04536 17.7495 2.45917 17.4788 2.92623 17.4788H4.27399C4.48099 17.4788 4.64542 17.6436 4.64542 17.8504C4.64542 18.0572 4.48099 18.2271 4.27399 18.2271H2.92623C2.7618 18.2271 2.61836 18.3066 2.5548 18.4658L0.798484 22.7425C0.772623 22.7971 0.761629 22.8576 0.766609 22.9178C0.782547 23.0398 0.867484 23.1512 0.973609 23.2097C1.03192 23.2363 1.09548 23.2523 1.16992 23.2523H22.8299C22.9042 23.2523 22.9677 23.2363 23.021 23.2097C23.1326 23.1512 23.2173 23.04 23.228 22.9178C23.2332 22.8593 23.228 22.8012 23.2014 22.7425L21.4451 18.4658C21.3813 18.3064 21.2381 18.2271 21.0736 18.2271H19.7146Z" fill="#004C8F"/>
<path d="M17.6102 13.1012C17.6102 12.8942 17.7799 12.7244 17.9869 12.7244C18.1939 12.7244 18.3583 12.8942 18.3583 13.1012V22.0741C18.3583 22.2811 18.1937 22.4507 17.9869 22.4507H6.01597C5.80897 22.4507 5.64453 22.2811 5.64453 22.0741V5.67268C5.64453 5.3543 5.78253 5.06762 6.00547 4.8608C6.23096 4.64878 6.52902 4.53105 6.83853 4.53174H12.7442C12.9512 4.53174 13.1157 4.70143 13.1157 4.90862C13.1157 5.11562 12.951 5.2853 12.7442 5.2853H6.83853C6.70578 5.2853 6.59441 5.32787 6.50966 5.40737C6.47293 5.44114 6.44359 5.48214 6.42349 5.5278C6.40339 5.57346 6.39295 5.62279 6.39284 5.67268V21.7024H17.6104L17.6102 13.1012Z" fill="#004C8F"/>
</svg>
