<svg width="24" height="14" viewBox="0 0 24 14" fill="none" xmlns="http://www.w3.org/2000/svg">
<path d="M23.157 0H12.0247C11.0845 0 10.2051 0.371935 9.54095 1.04905L7.18819 3.44755H0.583626C0.298303 3.44755 0.024665 3.5631 -0.177089 3.76877C-0.378843 3.97445 -0.492188 4.25341 -0.492188 4.54428V12.9033C-0.492187 13.1941 -0.378843 13.4731 -0.177089 13.6788C0.024665 13.8845 0.298303 14 0.583626 14H17.3336C17.6189 14 17.8925 13.8845 18.0943 13.6788C18.296 13.4731 18.4094 13.1941 18.4094 12.9033V7.75817C19.0455 7.58877 19.6274 7.25354 20.0979 6.78542H23.157C23.3488 6.78542 23.5078 6.6233 23.5078 6.42779V0.357629C23.5078 0.157357 23.3488 0 23.157 0ZM10.0368 1.5545C10.2973 1.28765 10.6071 1.07609 10.9483 0.932036C11.2895 0.787987 11.6554 0.714309 12.0247 0.715259H19.6115V6.27997C19.043 6.8431 18.2851 7.16375 17.4926 7.17643C16.6413 7.1812 15.8415 6.86172 15.2381 6.25613C15.1721 6.18962 15.083 6.15232 14.9902 6.15232C14.8974 6.15232 14.8083 6.18962 14.7423 6.25613L11.8563 9.19823C11.7502 9.30634 11.623 9.39058 11.483 9.44554C11.343 9.5005 11.1933 9.52494 11.0435 9.51731C10.8937 9.50967 10.7471 9.47012 10.6131 9.4012C10.4792 9.33228 10.3609 9.23553 10.2659 9.11717C9.91982 8.68801 9.97127 8.0252 10.3829 7.60559L13.8629 4.0579C13.9117 4.0078 13.9448 3.94412 13.9582 3.87487C13.9716 3.80561 13.9646 3.73387 13.9381 3.66865C13.9116 3.60344 13.8668 3.54765 13.8093 3.50832C13.7519 3.46898 13.6842 3.44784 13.615 3.44755H8.18448L10.0368 1.5545ZM9.72337 9.57493C9.9853 9.89918 10.3501 10.109 10.7477 10.1948C10.5328 10.4675 10.2608 10.6877 9.95167 10.8395C9.64254 10.9913 9.30406 11.0708 8.96094 11.0722C7.69335 11.0722 6.65963 10.0184 6.65963 8.72616C6.65963 7.43392 7.69335 6.38011 8.96094 6.38011C9.40998 6.38011 9.8403 6.51839 10.2145 6.76635L9.8824 7.1049C9.2182 7.77725 9.14804 8.86444 9.72337 9.57493ZM17.7078 12.9033C17.7078 13.1131 17.5394 13.2847 17.3336 13.2847H0.583626C0.377818 13.2847 0.20943 13.1131 0.20943 12.9033V4.54428C0.20943 4.33447 0.377818 4.16281 0.583626 4.16281H12.7637L10.7103 6.25613C10.2005 5.87943 9.5924 5.66008 8.95626 5.66008C7.30045 5.66008 5.95334 7.03338 5.95334 8.72139C5.95334 10.4094 7.30045 11.7827 8.95626 11.7827C10.0695 11.7827 11.0845 11.1437 11.6037 10.1424C11.8819 10.0584 12.1357 9.90616 12.3427 9.69891L14.9949 6.99523C15.6795 7.57448 16.5421 7.89008 17.4318 7.88692H17.4973C17.5674 7.88692 17.6376 7.87738 17.7078 7.87262V12.9033ZM22.8062 6.07016H20.3084V0.715259H22.8062V6.07016Z" fill="#004C8F"/>
<path d="M4.14942 7.1875C3.3427 7.1875 2.6875 7.84733 2.6875 8.65975C2.6875 9.47217 3.3427 10.132 4.14942 10.132C4.95613 10.132 5.61133 9.47217 5.61133 8.65975C5.61133 7.84733 4.95613 7.1875 4.14942 7.1875ZM4.14942 9.51753C3.68259 9.51753 3.30175 9.13401 3.30175 8.66388C3.30175 8.19374 3.68259 7.81022 4.14942 7.81022C4.61625 7.81022 4.99708 8.19374 4.99708 8.66388C4.99708 9.13401 4.62034 9.51753 4.14942 9.51753Z" fill="#004C8F"/>
</svg>
