<svg width="24" height="24" viewBox="0 0 24 24" fill="none" xmlns="http://www.w3.org/2000/svg">
<path d="M3.69492 19.5749C3.62789 19.3251 3.37106 19.1766 3.12084 19.2436C2.87104 19.3107 2.7225 19.5675 2.78953 19.8177C2.85656 20.0675 3.11339 20.2161 3.36361 20.1491C3.61336 20.082 3.76195 19.8247 3.69492 19.5749Z" fill="#004C8F"/>
<path d="M23.3952 19.2146C23.0469 18.2514 21.9848 17.7456 21.0191 18.0785L17.1361 19.0672C17.3185 18.2952 16.9917 17.4445 16.2477 17.0152L9.61467 13.1852C9.07223 12.8724 8.44064 12.7894 7.83642 12.9515L3.9802 13.9847C3.80669 13.7921 3.58325 13.6512 3.33462 13.5777C3.086 13.5042 2.82188 13.501 2.57151 13.5683L-0.144704 14.2962C-0.394642 14.3632 -0.543095 14.6202 -0.47611 14.8702L1.46503 22.1132C1.53197 22.3629 1.7888 22.5116 2.03901 22.4445L4.75476 21.7167C5.2822 21.5755 5.66958 21.1393 5.77059 20.6241L6.42961 20.46C6.78459 20.3717 7.15491 20.424 7.47328 20.6076L12.3967 23.4315C13.3617 23.9885 14.4795 24.1368 15.5422 23.8675C15.5536 23.8646 15.5649 23.8613 15.576 23.8576L22.2571 21.6174C22.2604 21.6163 22.2637 21.6152 22.2669 21.614C23.2392 21.264 23.7454 20.1879 23.3952 19.2146ZM4.51223 20.8114L2.24901 21.4179L0.550546 15.0803L1.45603 14.8377L2.30531 18.0064C2.37216 18.2557 2.62866 18.405 2.8793 18.3377C3.12928 18.2707 3.27764 18.0137 3.21066 17.7638L2.36142 14.5951L2.81405 14.4738C3.06609 14.4062 3.32081 14.5564 3.38836 14.805L4.84383 20.2382C4.91072 20.4849 4.761 20.7448 4.51223 20.8114ZM21.9537 20.7307L15.2953 22.9633C14.4674 23.1687 13.605 23.047 12.8641 22.6194L7.94058 19.7953C7.41187 19.4904 6.79491 19.4034 6.20316 19.5506L5.66573 19.6845L4.37081 14.8507L8.07914 13.857C8.44172 13.7596 8.82084 13.8095 9.14616 13.9972L15.7791 17.827C16.2227 18.083 16.384 18.6538 16.1219 19.1075C15.865 19.5529 15.2933 19.7113 14.8417 19.4503L10.7831 17.1071C10.5591 16.9778 10.2724 17.0544 10.143 17.2786C10.0135 17.5028 10.0903 17.7894 10.3145 17.9188L14.3729 20.262C14.9429 20.5913 15.6509 20.6061 16.2481 20.2606C21.5804 18.902 21.273 18.9831 21.3131 18.9687C21.7994 18.7941 22.338 19.0474 22.5135 19.5326C22.688 20.0177 22.437 20.554 21.9537 20.7307ZM22.6431 6.33076L18.7466 0.218637C18.7042 0.152221 18.6458 0.0975517 18.5768 0.0596792C18.5077 0.0218067 18.4302 0.00195313 18.3514 0.00195312C18.2727 0.00195313 18.1952 0.0218067 18.1261 0.0596792C18.057 0.0975517 17.9986 0.152221 17.9563 0.218637L14.0597 6.33081C11.7729 9.76093 14.3117 14.4832 18.3514 14.4832C22.3815 14.4832 24.9361 9.7704 22.6431 6.33076ZM18.3514 13.5459C15.0892 13.5459 12.9521 9.67581 14.8419 6.84718C14.8438 6.84437 14.8456 6.84161 14.8474 6.83875L18.3514 1.34228L21.8554 6.83875C21.8572 6.84161 21.859 6.84437 21.8609 6.84718C23.7439 9.66568 21.6328 13.5459 18.3514 13.5459Z" fill="#004C8F"/>
<path d="M21.0821 7.36863C20.9385 7.15338 20.6475 7.09535 20.4322 7.23912C20.2169 7.38279 20.1589 7.67384 20.3026 7.88909C20.5591 8.27327 20.6947 8.72229 20.6947 9.18757C20.6947 10.5108 19.5998 11.6714 18.3515 11.6714C18.0926 11.6714 17.8828 11.8812 17.8828 12.1401C17.8828 12.3989 18.0926 12.6087 18.3515 12.6087C20.1297 12.6087 21.632 11.042 21.632 9.18762C21.632 8.53638 21.4418 7.90741 21.0821 7.36863Z" fill="#004C8F"/>
</svg>
