<svg width="12" height="10" viewBox="0 0 12 10" fill="none" xmlns="http://www.w3.org/2000/svg">
<path d="M11.8198 1.46878C11.4023 1.65378 10.9538 1.77878 10.4823 1.83528C10.9688 1.54418 11.3328 1.08602 11.5063 0.546283C11.0492 0.817777 10.549 1.00888 10.0273 1.11128C9.67649 0.736715 9.21183 0.488446 8.70546 0.40502C8.19909 0.321594 7.67935 0.407678 7.22692 0.649909C6.77449 0.89214 6.41468 1.27696 6.20337 1.74463C5.99206 2.21231 5.94106 2.73666 6.0583 3.23628C5.13214 3.18978 4.22611 2.94906 3.39901 2.52973C2.57191 2.11041 1.84222 1.52186 1.2573 0.802283C1.0573 1.14728 0.942297 1.54728 0.942297 1.97328C0.942074 2.35678 1.03651 2.7344 1.21724 3.07265C1.39796 3.41089 1.65938 3.6993 1.9783 3.91228C1.60844 3.90051 1.24673 3.80057 0.923297 3.62078V3.65078C0.92326 4.18865 1.10931 4.70997 1.44989 5.12628C1.79046 5.54259 2.26458 5.82825 2.7918 5.93478C2.44869 6.02764 2.08897 6.04132 1.7398 5.97478C1.88855 6.43759 2.17829 6.8423 2.56848 7.13224C2.95867 7.42219 3.42976 7.58287 3.9158 7.59178C3.09071 8.23949 2.07174 8.59083 1.0228 8.58928C0.836987 8.58933 0.651335 8.57848 0.466797 8.55678C1.53153 9.24137 2.77097 9.60469 4.0368 9.60328C8.3218 9.60328 10.6643 6.05428 10.6643 2.97628C10.6643 2.87628 10.6618 2.77528 10.6573 2.67528C11.1129 2.34577 11.5063 1.93773 11.8188 1.47028L11.8198 1.46878Z" fill="#004C8F"/>
</svg>
