<svg width="21" height="24" viewBox="0 0 21 24" fill="none" xmlns="http://www.w3.org/2000/svg">
<path d="M10.7516 14.1168C10.6557 14.1168 10.5917 14.0848 10.5278 14.0209L8.60895 12.1021C8.51301 12.0061 8.48103 11.8782 8.54499 11.7503C8.57697 11.6224 8.70489 11.5584 8.83281 11.5584H9.79221C10.0481 11.5584 10.3039 11.4625 10.4638 11.2706C10.6557 11.1107 10.7516 10.8548 10.7516 10.599C10.7516 10.3432 10.6557 10.0873 10.4638 9.92742C10.3039 9.73554 10.0481 9.6396 9.79221 9.6396H8.83281C8.64093 9.6396 8.51301 9.51168 8.51301 9.3198C8.51301 9.12792 8.64093 9 8.83281 9H12.3506C12.5425 9 12.6704 9.12792 12.6704 9.3198C12.6704 9.51168 12.5425 9.6396 12.3506 9.6396H11.0714C11.2633 9.92742 11.3912 10.2472 11.3912 10.599C11.3912 11.0147 11.2313 11.4305 10.9115 11.7183C10.6237 12.0381 10.208 12.198 9.79221 12.198H9.60033L10.9755 13.5731C11.1034 13.7011 11.1034 13.8929 10.9755 14.0209C10.9115 14.0848 10.8476 14.1168 10.7516 14.1168Z" fill="#004C8F"/>
<path d="M12.3532 10.9189H8.83542C8.64354 10.9189 8.51562 10.791 8.51562 10.5991C8.51562 10.4072 8.64354 10.2793 8.83542 10.2793H12.3532C12.5451 10.2793 12.673 10.4072 12.673 10.5991C12.673 10.791 12.5451 10.9189 12.3532 10.9189Z" fill="#004C8F"/>
<path d="M4.65625 10.9488C4.65625 14.1016 7.21205 16.6574 10.3648 16.6574C13.5176 16.6574 16.0734 14.1016 16.0734 10.9488C16.0734 7.79603 13.5176 5.24023 10.3648 5.24023C7.21357 5.24368 4.65994 7.79756 4.65625 10.9488ZM10.3648 6.02757C13.0828 6.02757 15.2861 8.23084 15.2861 10.9488C15.2861 13.6668 13.0828 15.8701 10.3648 15.8701C7.64686 15.8701 5.44359 13.6668 5.44359 10.9488C5.44669 8.23217 7.64819 6.03067 10.3648 6.02757Z" fill="#004C8F"/>
<path d="M18.0143 17.628L14.9305 19.0851C14.7213 18.696 14.4132 18.3689 14.0372 18.1369C13.6613 17.905 13.2308 17.7762 12.7892 17.7637L9.94236 17.6855C9.49148 17.6726 9.04928 17.5584 8.64851 17.3514L8.35887 17.2013C7.62808 16.8204 6.81601 16.622 5.99192 16.6228C5.16782 16.6237 4.35617 16.8239 3.62618 17.2063L3.64424 16.5501C3.64567 16.4984 3.63691 16.4469 3.61846 16.3986C3.6 16.3503 3.57221 16.3061 3.53667 16.2686C3.50113 16.231 3.45854 16.2008 3.41134 16.1797C3.36413 16.1586 3.31323 16.147 3.26154 16.1456L0.139845 16.0597C0.0881659 16.0583 0.0367121 16.0671 -0.0115767 16.0855C-0.0598654 16.104 -0.104043 16.1318 -0.141584 16.1674C-0.179125 16.2029 -0.209295 16.2455 -0.230369 16.2927C-0.251443 16.3399 -0.263008 16.3908 -0.264404 16.4425L-0.452972 23.2928C-0.454414 23.3445 -0.445656 23.3959 -0.427199 23.4442C-0.408742 23.4926 -0.380947 23.5368 -0.345404 23.5743C-0.30986 23.6119 -0.267263 23.6421 -0.220048 23.6632C-0.172832 23.6843 -0.121922 23.6959 -0.0702271 23.6973L3.05142 23.7832H3.0622C3.16477 23.7832 3.26331 23.7432 3.33684 23.6717C3.41037 23.6002 3.45307 23.5028 3.45587 23.4002L3.46487 23.0725L4.27583 22.6383C4.59402 22.467 4.96638 22.4263 5.31409 22.5247L10.1569 23.8839C10.1654 23.8864 10.1738 23.8883 10.1825 23.8903C10.5325 23.9635 10.8892 24.0002 11.2468 24C12.0042 24.0005 12.7527 23.8371 13.441 23.5212C13.4579 23.5135 13.4742 23.5044 13.4898 23.4942L20.5115 18.9525C20.5958 18.8979 20.656 18.8133 20.68 18.7158C20.7039 18.6184 20.6898 18.5154 20.6404 18.4281C20.1192 17.5031 18.9629 17.1507 18.0143 17.628ZM0.344946 22.921L0.511764 16.8576L2.84632 16.9218L2.6795 22.9855L0.344946 22.921ZM13.0863 22.818C12.2311 23.2039 11.2761 23.3106 10.3568 23.1227L5.52706 21.767C4.98361 21.6133 4.40173 21.677 3.90431 21.9444L3.48987 22.1664L3.60079 18.1349C4.24554 17.7061 4.99355 17.4581 5.76679 17.4169C6.54004 17.3756 7.31018 17.5426 7.99689 17.9004L8.28658 18.0505C8.79282 18.3119 9.35132 18.4562 9.9208 18.4727L12.7678 18.5509C13.5675 18.574 14.2466 19.1433 14.4088 19.9268L10.1682 19.8097C9.95082 19.8038 9.76993 19.9753 9.76378 20.1925C9.76092 20.2969 9.79963 20.3981 9.87141 20.4739C9.94318 20.5498 10.0421 20.594 10.1465 20.5969L14.8263 20.7257H14.8373C14.9398 20.7256 15.0382 20.6856 15.1117 20.6141C15.1851 20.5426 15.2278 20.4452 15.2306 20.3428C15.2354 20.1717 15.2227 20.0006 15.1925 19.8321L18.3555 18.3375C18.3586 18.3362 18.3617 18.3347 18.3648 18.3331C18.5838 18.2222 18.8316 18.1811 19.0747 18.2151C19.3178 18.2492 19.5447 18.3568 19.7249 18.5236L13.0863 22.818ZM10.7587 4.13353V0.393669C10.7587 0.289262 10.7173 0.18913 10.6434 0.115303C10.5696 0.0414758 10.4695 0 10.3651 0C10.2607 0 10.1605 0.0414758 10.0867 0.115303C10.0129 0.18913 9.97139 0.289262 9.97139 0.393669V4.13353C9.97139 4.23794 10.0129 4.33807 10.0867 4.41189C10.1605 4.48572 10.2607 4.5272 10.3651 4.5272C10.4695 4.5272 10.5696 4.48572 10.6434 4.41189C10.7173 4.33807 10.7587 4.23794 10.7587 4.13353ZM13.7112 4.13353V2.36202C13.7112 2.25761 13.6698 2.15748 13.5959 2.08365C13.5221 2.00982 13.422 1.96835 13.3176 1.96835C13.2132 1.96835 13.113 2.00982 13.0392 2.08365C12.9654 2.15748 12.9239 2.25761 12.9239 2.36202V4.13353C12.9239 4.23794 12.9654 4.33807 13.0392 4.41189C13.113 4.48572 13.2132 4.5272 13.3176 4.5272C13.422 4.5272 13.5221 4.48572 13.5959 4.41189C13.6698 4.33807 13.7112 4.23794 13.7112 4.13353ZM7.80621 4.13353V2.36202C7.80621 2.25761 7.76473 2.15748 7.69091 2.08365C7.61708 2.00982 7.51695 1.96835 7.41254 1.96835C7.30813 1.96835 7.208 2.00982 7.13417 2.08365C7.06035 2.15748 7.01887 2.25761 7.01887 2.36202V4.13353C7.01887 4.23794 7.06035 4.33807 7.13417 4.41189C7.208 4.48572 7.30813 4.5272 7.41254 4.5272C7.51695 4.5272 7.61708 4.48572 7.69091 4.41189C7.76473 4.33807 7.80621 4.23794 7.80621 4.13353Z" fill="#004C8F"/>
</svg>
