<svg width="20" height="20" viewBox="0 0 20 20" fill="none" xmlns="http://www.w3.org/2000/svg">
<path d="M19.1029 9.604C19.3245 9.604 19.4987 9.77817 19.4987 9.99984C19.4987 10.2215 19.3245 10.3957 19.1029 10.3957H18.707V9.604H19.1029ZM10.3945 9.604H18.707V10.3957H10.3945V9.604Z" fill="#004C8F"/>
<path d="M17.5208 19.5H10C10.2217 19.5 10.3958 19.3258 10.3958 19.1042V18.7083H17.5208C18.1779 18.7083 18.7083 18.1779 18.7083 17.5208V10.3958H19.1042C19.3258 10.3958 19.5 10.2217 19.5 10V17.5208C19.5 17.7807 19.4488 18.0381 19.3493 18.2782C19.2499 18.5184 19.1041 18.7365 18.9203 18.9203C18.7365 19.1041 18.5184 19.2499 18.2782 19.3493C18.0381 19.4488 17.7807 19.5 17.5208 19.5ZM19.5 2.47917V10C19.5 9.77833 19.3258 9.60417 19.1042 9.60417H18.7083V2.47917C18.7083 1.82208 18.1779 1.29167 17.5208 1.29167H10.3958V0.895833C10.3958 0.674167 10.2217 0.5 10 0.5H17.5208C17.7807 0.5 18.0381 0.551193 18.2782 0.650655C18.5184 0.750118 18.7365 0.895902 18.9203 1.07968C19.1041 1.26347 19.2499 1.48165 19.3493 1.72177C19.4488 1.9619 19.5 2.21926 19.5 2.47917Z" fill="#004C8F"/>
<path d="M16.3346 5.25C16.5563 5.25 16.7305 5.42417 16.7305 5.64583C16.7305 5.8675 16.5563 6.04167 16.3346 6.04167H13.168C12.9463 6.04167 12.7721 5.8675 12.7721 5.64583C12.7721 5.42417 12.9463 5.25 13.168 5.25H16.3346ZM16.3346 13.1667C16.5563 13.1667 16.7305 13.3408 16.7305 13.5625C16.7305 13.7842 16.5563 13.9583 16.3346 13.9583H13.168C12.9463 13.9583 12.7721 13.7842 12.7721 13.5625C12.7721 13.3408 12.9463 13.1667 13.168 13.1667H16.3346ZM16.3346 15.5417C16.5563 15.5417 16.7305 15.7158 16.7305 15.9375C16.7305 16.1592 16.5563 16.3333 16.3346 16.3333H13.168C12.9463 16.3333 12.7721 16.1592 12.7721 15.9375C12.7721 15.7158 12.9463 15.5417 13.168 15.5417H16.3346ZM10.3971 18.7083V19.1042C10.3971 19.3258 10.223 19.5 10.0013 19.5C9.77964 19.5 9.60547 19.3258 9.60547 19.1042V18.7083H10.3971ZM9.60547 10.3958H10.3971V18.7083H9.60547V10.3958ZM9.60547 9.60417H10.3971V10.3958H9.60547V9.60417ZM9.60547 1.29167H10.3971V9.60417H9.60547V1.29167ZM10.3971 0.895833V1.29167H9.60547V0.895833C9.60547 0.674167 9.77964 0.5 10.0013 0.5C10.223 0.5 10.3971 0.674167 10.3971 0.895833ZM1.29297 9.60417H9.60547V10.3958H1.29297V9.60417ZM6.83464 5.25C7.0563 5.25 7.23047 5.42417 7.23047 5.64583C7.23047 5.8675 7.0563 6.04167 6.83464 6.04167H5.64714V5.25H6.83464ZM6.71589 15.6604C6.87422 15.8108 6.87422 16.0642 6.71589 16.2146C6.64464 16.2938 6.54172 16.3333 6.4388 16.3333C6.33589 16.3333 6.23297 16.2938 6.16172 16.2146L5.2513 15.3042L5.80547 14.75L6.71589 15.6604ZM6.16172 13.2854C6.31214 13.1271 6.56547 13.1271 6.71589 13.2854C6.87422 13.4358 6.87422 13.6892 6.71589 13.8396L5.80547 14.75L5.2513 14.1958L6.16172 13.2854ZM4.69476 14.7492L5.24893 14.195L5.80309 14.7492L5.24893 15.3034L4.69476 14.7492ZM5.64714 6.04167V7.22917C5.64714 7.45083 5.47297 7.625 5.2513 7.625C5.02964 7.625 4.85547 7.45083 4.85547 7.22917V6.04167H5.64714ZM4.85547 5.25H5.64714V6.04167H4.85547V5.25ZM5.64714 4.0625V5.25H4.85547V4.0625C4.85547 3.84083 5.02964 3.66667 5.2513 3.66667C5.47297 3.66667 5.64714 3.84083 5.64714 4.0625Z" fill="#004C8F"/>
<path d="M5.25 14.1958L4.69583 14.75L3.78542 13.8396C3.62708 13.6892 3.62708 13.4358 3.78542 13.2854C3.93583 13.1271 4.18917 13.1271 4.33958 13.2854L5.25 14.1958ZM4.85417 5.25V6.04167H3.66667C3.445 6.04167 3.27083 5.8675 3.27083 5.64583C3.27083 5.42417 3.445 5.25 3.66667 5.25H4.85417ZM4.33958 16.2146C4.26833 16.2938 4.16542 16.3333 4.0625 16.3333C3.95958 16.3333 3.85667 16.2938 3.78542 16.2146C3.62708 16.0642 3.62708 15.8108 3.78542 15.6604L4.69583 14.75L5.25 15.3042L4.33958 16.2146ZM1.29167 9.60417V10.3958H0.895833C0.674167 10.3958 0.5 10.2217 0.5 10C0.5 9.77833 0.674167 9.60417 0.895833 9.60417H1.29167Z" fill="#004C8F"/>
<path d="M0.5 2.47917C0.5 1.95426 0.708519 1.45085 1.07968 1.07968C1.45085 0.708519 1.95426 0.5 2.47917 0.5L10 0.5C9.77833 0.5 9.60417 0.674167 9.60417 0.895833V1.29167H2.47917C1.82208 1.29167 1.29167 1.82208 1.29167 2.47917V9.60417H0.895833C0.674167 9.60417 0.5 9.77833 0.5 10V2.47917ZM1.29167 17.5208C1.29167 18.1779 1.82208 18.7083 2.47917 18.7083H9.60417V19.1042C9.60417 19.3258 9.77833 19.5 10 19.5H2.47917C2.21926 19.5 1.9619 19.4488 1.72177 19.3493C1.48165 19.2499 1.26347 19.1041 1.07968 18.9203C0.895902 18.7365 0.750118 18.5184 0.650655 18.2782C0.551193 18.0381 0.5 17.7807 0.5 17.5208L0.5 10C0.5 10.2217 0.674167 10.3958 0.895833 10.3958H1.29167V17.5208Z" fill="#004C8F"/>
</svg>
