<svg width="44" height="45" viewBox="0 0 44 45" fill="none" xmlns="http://www.w3.org/2000/svg">
<path d="M10.0117 3.24805H40.2065C41.9457 3.24805 43.3555 4.65785 43.3555 6.39697V16.1863C43.3555 17.9254 41.9457 19.3352 40.2065 19.3352H27.0383M23.8485 19.3353H3.79345C2.05434 19.3353 0.644531 17.9255 0.644531 16.1864V6.39705C0.644531 4.65794 2.05434 3.24813 3.79345 3.24813H7.26172" stroke="#004C8F" stroke-miterlimit="10" stroke-linecap="round" stroke-linejoin="round"/>
<path d="M5.79688 15.036L8.59801 7.65436C8.65524 7.51394 8.85333 7.51368 8.91091 7.65402L11.6865 15.036M6.67052 13.1975H10.8271M29.0685 7.54883V15.0296C29.1509 15.0438 31.6807 15.0296 31.6807 15.0296M33.4587 7.54883L35.8415 11.2115M35.8415 11.2115L38.2048 7.56782M35.8415 11.2115L35.8322 15.036M14.6649 15.036V7.54883H16.742C17.9046 7.54883 18.8883 8.49483 18.8883 9.66169C18.8883 10.8285 17.9046 11.7745 16.742 11.7745L14.6793 11.7839M21.8667 15.036V7.54883H23.9438C25.1064 7.54883 26.0902 8.49483 26.0902 9.66169C26.0902 10.8285 25.1064 11.7745 23.9438 11.7745L21.8811 11.7839M35.5422 37.4324C36.2182 36.2833 36.6064 34.9446 36.6064 33.5149V26.7372C36.6092 25.8562 35.8973 25.1441 35.0163 25.1468C34.1439 25.1496 33.4341 25.8527 33.4184 26.722V25.8651C33.4211 24.9841 32.7091 24.272 31.828 24.2748C30.9475 24.2775 30.2316 24.9934 30.2288 25.874V25.0157M30.2288 25.0157C30.2316 24.1347 29.5195 23.4226 28.6385 23.4253C27.7579 23.4281 27.042 24.144 27.0393 25.0246V16.4319C27.042 15.5509 26.3299 14.8388 25.4489 14.8416C24.5684 14.8443 23.8524 15.5602 23.8497 16.4408L23.8485 29.3674C23.8485 29.848 23.4661 30.2414 22.9857 30.2551L22.965 30.2557C22.7924 30.2606 22.622 30.215 22.4749 30.1244C22.3277 30.0339 22.2102 29.9024 22.1368 29.7461L20.1323 25.4787C19.9696 25.1324 19.69 24.8546 19.3427 24.6941C18.9953 24.5336 18.6025 24.5008 18.2333 24.6014C17.2574 24.8674 16.7587 25.9505 17.1912 26.865L21.833 36.7772C23.1117 39.5076 25.8544 41.2519 28.8694 41.2519C30.7897 41.2519 32.5463 40.552 33.8989 39.3937M30.2288 25.0157L30.2287 26.7968M27.0392 26.722V25.0246M33.4183 26.722V26.8716" stroke="#004C8F" stroke-miterlimit="10" stroke-linecap="round" stroke-linejoin="round"/>
</svg>
