<svg width="41" height="41" viewBox="0 0 41 41" fill="none" xmlns="http://www.w3.org/2000/svg">
<g clip-path="url(#clip0_185_3051)">
<path d="M40.1133 33.6543H11.1133V13.6543H40.1133V33.6543ZM12.2719 32.1045H38.6872V15.1186H12.2719V32.1045Z" fill="#004C8F"/>
<path d="M35.1227 29.6543H11.1777V29.0634C11.1773 28.6804 11.4271 28.4848 11.1777 28.2139C10.9283 27.9431 11.5303 27.4879 11.1777 27.4875V18.8192C11.5303 18.8187 10.9283 18.6978 11.1777 18.427C11.427 18.1562 11.1772 18.2191 11.1777 17.8361V16.6543H35.1217V17.3747C35.1222 17.7576 35.2625 18.1247 35.5119 18.3954C35.7612 18.6662 36.0992 18.8186 36.4519 18.8192H37.1152V27.4864H36.4519C36.0991 27.4869 35.7609 27.6393 35.5115 27.9103C35.2621 28.1812 35.1219 28.5486 35.1217 28.9317L35.1227 29.6543ZM11.7672 28.2139L33.877 28.2098C33.9966 27.7103 34.2368 27.2546 34.5728 26.8896C34.9089 26.5247 35.3286 26.2638 35.7885 26.134V20.172C35.3287 20.0421 34.9092 19.7814 34.5731 19.4167C34.2371 19.052 33.9968 18.5965 33.877 18.0973H11.7672C11.6475 18.5966 12.1032 19.0522 11.7672 19.417C11.4312 19.7817 12.227 20.0699 11.7672 20.1998V26.1088C12.2273 26.2388 11.4312 26.3345 11.7672 26.6998C12.1032 27.065 11.648 27.7141 11.7672 28.2139Z" fill="#004C8F"/>
<path d="M14.125 22.6543H15.6032V24.6543H14.125V22.6543ZM29.6468 22.6543H31.125V24.6543H29.6468V22.6543Z" fill="#004C8F"/>
<path d="M22.1207 27.6543H22.1184C21.5775 27.6517 21.0433 27.5434 20.5515 27.3368C20.0597 27.1302 19.6214 26.83 19.2658 26.456C18.5188 25.6837 18.111 24.6845 18.1213 23.652C18.1213 21.4472 19.9167 19.6543 22.1188 19.6543C22.6604 19.6565 23.1953 19.7644 23.688 19.9707C24.1806 20.1771 24.6198 20.4772 24.9764 20.8512C25.7228 21.6236 26.1306 22.6223 26.1209 23.6545C26.1228 25.8565 24.3293 27.6511 22.1253 27.6511L22.1207 27.6543ZM22.123 20.9873C20.7202 20.9873 19.5783 22.1832 19.5764 23.6541C19.5671 24.3565 19.8416 25.0372 20.3471 25.565C20.5672 25.7988 20.839 25.9871 21.1444 26.1172C21.4499 26.2474 21.782 26.3164 22.1188 26.3199C23.5228 26.3199 24.6635 25.1244 24.6673 23.6552C24.6775 22.9526 24.4028 22.2717 23.8967 21.7443C23.677 21.5103 23.4055 21.3218 23.1003 21.1915C22.7951 21.0611 22.4631 20.9919 22.1264 20.9884L22.123 20.9873Z" fill="#004C8F"/>
<path d="M6.11914 6.65468C3.13646 6.65468 0.119141 7.66687 0.119141 9.60189V31.7071C0.119141 33.6409 3.13686 34.6543 6.11914 34.6543C9.10142 34.6543 12.1191 33.6425 12.1191 31.7071V9.6015C12.1191 7.66687 9.10103 6.6543 6.11914 6.6543V6.65468ZM6.11914 8.12829C8.91048 8.12829 10.6191 9.08245 10.6191 9.60189C10.6191 10.1213 8.91048 11.0755 6.11914 11.0755C3.3278 11.0755 1.61914 10.1217 1.61914 9.60189C1.61914 9.08207 3.3278 8.12829 6.11914 8.12829ZM1.61914 26.3522C3.02348 27.007 4.56524 27.327 6.11914 27.2863C7.67303 27.3269 9.21477 27.0069 10.6191 26.3522V28.0231C10.6191 28.5425 8.91048 29.4967 6.11914 29.4967C3.3278 29.4967 1.61914 28.5433 1.61914 28.0231V26.3522ZM6.11914 33.1807C3.3278 33.1807 1.61914 32.2265 1.61914 31.7071V30.0362C3.02369 30.6903 4.56534 31.01 6.11914 30.9695C7.67294 31.01 9.21458 30.6902 10.6191 30.0362V31.7071C10.6191 32.2261 8.91048 33.1807 6.11914 33.1807ZM6.11914 25.8119C3.3278 25.8119 1.61914 24.8581 1.61914 24.3383V22.6674C3.02329 23.3228 4.56512 23.6433 6.11914 23.6027C7.67313 23.6434 9.21495 23.3231 10.6191 22.6678V24.3387C10.6191 24.857 8.91048 25.8084 6.11914 25.8084V25.8119ZM6.11914 22.1283C3.3278 22.1283 1.61914 21.1745 1.61914 20.6547V18.9838C3.02356 19.6383 4.56526 19.9583 6.11914 19.9179C7.67317 19.9577 9.21487 19.637 10.6191 18.9819V20.6527C10.6191 21.171 8.91048 22.1264 6.11914 22.1264V22.1283ZM6.11914 18.4443C3.3278 18.4443 1.61914 17.489 1.61914 16.9707V15.2998C3.02375 15.9536 4.56542 16.2729 6.11914 16.2319C7.67317 16.2716 9.21484 15.951 10.6191 15.296V16.9668C10.6191 17.4851 8.91048 18.4389 6.11914 18.4389V18.4443ZM6.11914 14.7583C3.3278 14.7583 1.61914 13.803 1.61914 13.2847V11.6139C3.0234 12.269 4.5651 12.5897 6.11914 12.5499C7.67317 12.5897 9.21487 12.269 10.6191 11.6139V13.2851C10.6191 13.8034 8.91048 14.7583 6.11914 14.7583Z" fill="#004C8F"/>
</g>
<defs>
<clipPath id="clip0_185_3051">
<rect width="40" height="40.0019" fill="white" transform="translate(0.121094 0.654297)"/>
</clipPath>
</defs>
</svg>
