<svg width="12" height="12" viewBox="0 0 12 12" fill="none" xmlns="http://www.w3.org/2000/svg">
<g clip-path="url(#clip0_578_3458)">
<path d="M11.2162 3.84925C11.2103 3.40837 11.1276 2.97188 10.9719 2.5593C10.8368 2.21129 10.6305 1.89524 10.3662 1.63133C10.1018 1.36742 9.78523 1.16147 9.43664 1.02662C9.02868 0.873736 8.5977 0.791068 8.16204 0.782138C7.60112 0.757107 7.42328 0.750122 5.99942 0.750122C4.57555 0.750122 4.39305 0.750122 3.83621 0.782138C3.40075 0.791134 2.96997 0.873801 2.56219 1.02662C2.21355 1.16137 1.89692 1.3673 1.63256 1.63121C1.3682 1.89513 1.16194 2.21124 1.02696 2.5593C0.873513 2.96627 0.790887 3.39643 0.782652 3.8312C0.75758 4.39177 0.75 4.56931 0.75 5.99081C0.75 7.41231 0.75 7.59392 0.782652 8.15042C0.791398 8.58583 0.873612 9.01542 1.02696 9.42348C1.16216 9.77144 1.36858 10.0874 1.63303 10.3512C1.89748 10.615 2.21414 10.8209 2.56278 10.9556C2.96943 11.1146 3.40029 11.2032 3.8368 11.2175C4.3983 11.2426 4.57613 11.2501 6 11.2501C7.42387 11.2501 7.60637 11.2501 8.16321 11.2175C8.59885 11.209 9.02986 11.1265 9.43781 10.9736C9.7863 10.8386 10.1028 10.6326 10.3671 10.3687C10.6315 10.1048 10.8378 9.78886 10.973 9.44094C11.1264 9.03347 11.2086 8.60388 11.2173 8.16788C11.2424 7.6079 11.25 7.43035 11.25 6.00827C11.2488 4.58677 11.2488 4.40632 11.2162 3.84925ZM5.99592 8.67897C4.50675 8.67897 3.30037 7.47459 3.30037 5.9879C3.30037 4.5012 4.50675 3.29683 5.99592 3.29683C6.71082 3.29683 7.39645 3.58035 7.90196 4.08503C8.40748 4.5897 8.69147 5.27418 8.69147 5.9879C8.69147 6.70161 8.40748 7.3861 7.90196 7.89077C7.39645 8.39544 6.71082 8.67897 5.99592 8.67897ZM8.79876 3.8248C8.71619 3.82487 8.63442 3.8087 8.55813 3.77719C8.48183 3.74568 8.41251 3.69946 8.35413 3.64118C8.29575 3.58289 8.24945 3.51368 8.21789 3.43752C8.18633 3.36135 8.17013 3.27972 8.1702 3.19729C8.1702 3.11492 8.18645 3.03336 8.21803 2.95726C8.2496 2.88117 8.29588 2.81202 8.35422 2.75378C8.41256 2.69554 8.48182 2.64934 8.55804 2.61782C8.63426 2.5863 8.71596 2.57007 8.79847 2.57007C8.88097 2.57007 8.96267 2.5863 9.03889 2.61782C9.11512 2.64934 9.18437 2.69554 9.24271 2.75378C9.30105 2.81202 9.34733 2.88117 9.3789 2.95726C9.41048 3.03336 9.42673 3.11492 9.42673 3.19729C9.42673 3.54422 9.14569 3.8248 8.79876 3.8248Z" fill="#004C8F"/>
<path d="M5.99609 7.5C6.82452 7.5 7.49609 6.82843 7.49609 6C7.49609 5.17157 6.82452 4.5 5.99609 4.5C5.16767 4.5 4.49609 5.17157 4.49609 6C4.49609 6.82843 5.16767 7.5 5.99609 7.5Z" fill="#004C8F"/>
</g>
<defs>
<clipPath id="clip0_578_3458">
<rect width="12" height="12" fill="white"/>
</clipPath>
</defs>
</svg>
