<svg width="24" height="24" viewBox="0 0 24 24" fill="none" xmlns="http://www.w3.org/2000/svg">
<path d="M23.8205 7.65005L19.0355 4.70005V1.37555C19.0355 1.2761 18.996 1.18071 18.9256 1.11039C18.8553 1.04006 18.7599 1.00055 18.6605 1.00055H16.236C16.1365 1.00055 16.0411 1.04006 15.9708 1.11039C15.9005 1.18071 15.861 1.2761 15.861 1.37555V2.73855L12.3235 0.557051C12.2647 0.521023 12.1972 0.501953 12.1282 0.501953C12.0593 0.501953 11.9917 0.521023 11.933 0.557051L0.179978 7.64605C0.136142 7.67061 0.0976896 7.70373 0.0669042 7.74345C0.0361189 7.78316 0.0136286 7.82865 0.000769293 7.87723C-0.01209 7.9258 -0.0150561 7.97647 -0.00795278 8.02621C-0.000849452 8.07595 0.0161784 8.12376 0.0421194 8.16679C0.0680603 8.20983 0.102385 8.24721 0.143056 8.27672C0.183726 8.30623 0.229912 8.32726 0.27887 8.33857C0.327828 8.34988 0.37856 8.35124 0.428053 8.34256C0.477546 8.33388 0.524789 8.31534 0.566978 8.28805L1.63448 7.64355V20.837C1.63448 20.8863 1.64418 20.9351 1.66302 20.9806C1.68187 21.0261 1.70949 21.0674 1.74431 21.1022C1.77913 21.137 1.82047 21.1647 1.86597 21.1835C1.91147 21.2023 1.96023 21.212 2.00948 21.212H15.1595C15.2589 21.212 15.3543 21.1725 15.4246 21.1022C15.495 21.0319 15.5345 20.9365 15.5345 20.837C15.5345 20.7376 15.495 20.6422 15.4246 20.5719C15.3543 20.5016 15.2589 20.462 15.1595 20.462H2.38448V7.19155L12.1245 1.31505L14.8595 3.00005L16.3805 5.45655C16.4344 5.53786 16.5179 5.59498 16.6132 5.61581C16.7086 5.63663 16.8083 5.61952 16.8912 5.56811C16.9742 5.51669 17.0338 5.43501 17.0576 5.34036C17.0813 5.24571 17.0673 5.14554 17.0185 5.06105L16.287 3.88255L21.6125 7.16705V20.462H20.503C20.4035 20.462 20.3081 20.5016 20.2378 20.5719C20.1675 20.6422 20.128 20.7376 20.128 20.837C20.128 20.9365 20.1675 21.0319 20.2378 21.1022C20.3081 21.1725 20.4035 21.212 20.503 21.212H21.9875C22.0869 21.212 22.1823 21.1725 22.2526 21.1022C22.323 21.0319 22.3625 20.9365 22.3625 20.837V7.62955L23.4265 8.28605C23.5112 8.3383 23.6131 8.35477 23.7099 8.33184C23.8067 8.30892 23.8905 8.24847 23.9427 8.1638C23.995 8.07913 24.0114 7.97717 23.9885 7.88036C23.9656 7.78354 23.9052 7.6998 23.8205 7.64755V7.65005ZM18.2855 4.23405L16.611 3.20005V1.75005H18.2855V4.23405Z" fill="#004C8F"/>
<path d="M14.5055 18.2896L17.6775 23.3241C17.7037 23.3657 17.738 23.4018 17.7782 23.4302C17.8184 23.4586 17.8639 23.4788 17.912 23.4896C17.9392 23.4959 17.967 23.4991 17.995 23.4991C18.0657 23.4988 18.135 23.4789 18.195 23.4416L19.928 22.3501C19.9697 22.3239 20.0058 22.2897 20.0343 22.2495C20.0628 22.2093 20.0831 22.1639 20.094 22.1159C20.1049 22.0679 20.1062 22.0182 20.0979 21.9697C20.0896 21.9211 20.0718 21.8747 20.0455 21.8331L16.8735 16.8001C16.8203 16.716 16.736 16.6565 16.639 16.6344C16.542 16.6124 16.4402 16.6297 16.356 16.6826L15.83 17.0141L14.73 15.2386C14.6526 15.1138 14.5514 15.0055 14.432 14.92C14.3126 14.8345 14.1775 14.7735 14.0345 14.7405C13.8914 14.7074 13.7432 14.703 13.5985 14.7275C13.4537 14.752 13.3152 14.8048 13.191 14.8831L7.53098 18.4496C7.45051 18.4995 7.35379 18.5162 7.26124 18.4961C7.16869 18.4761 7.08756 18.4208 7.03498 18.3421L5.70698 16.3251C5.68048 16.2848 5.66227 16.2396 5.65342 16.1922C5.64457 16.1449 5.64527 16.0962 5.65547 16.0491C5.66566 16.0019 5.68515 15.9573 5.7128 15.9178C5.74045 15.8783 5.7757 15.8448 5.81648 15.8191L6.30548 15.5111L6.77348 16.2531C6.85183 16.379 6.95448 16.4881 7.07544 16.5739C7.1964 16.6598 7.33324 16.7207 7.47798 16.7531C7.56 16.7718 7.64385 16.7814 7.72798 16.7816C7.94046 16.7818 8.14859 16.7214 8.32798 16.6076L18.278 10.3386C18.5307 10.1789 18.7098 9.9255 18.7759 9.63396C18.8419 9.34242 18.7897 9.03658 18.6305 8.78355L18.1625 8.04105L18.6175 7.75455C18.6592 7.72829 18.6953 7.69407 18.7238 7.65385C18.7522 7.61363 18.7725 7.56819 18.7834 7.52014C18.7943 7.47208 18.7957 7.42235 18.7874 7.37378C18.779 7.32521 18.7612 7.27875 18.735 7.23705C18.7087 7.19536 18.6745 7.15924 18.6343 7.13077C18.5941 7.1023 18.5486 7.08203 18.5006 7.07112C18.4525 7.06021 18.4028 7.05887 18.3542 7.06718C18.3056 7.07549 18.2592 7.09329 18.2175 7.11955L17.7625 7.40605L17.2945 6.66355C17.1349 6.41074 16.8815 6.23158 16.59 6.16539C16.2985 6.09921 15.9926 6.15142 15.7395 6.31055L5.78948 12.5791C5.53674 12.7388 5.35766 12.9923 5.29149 13.2838C5.22531 13.5754 5.27746 13.8814 5.43648 14.1346L5.90448 14.8771L5.41548 15.1856C5.29036 15.2644 5.18224 15.3675 5.09744 15.4887C5.01263 15.6099 4.95286 15.7468 4.92162 15.8913C4.89038 16.0359 4.88829 16.1853 4.91548 16.3306C4.94268 16.476 4.9986 16.6145 5.07998 16.7381L6.40898 18.7501C6.51104 18.9041 6.64976 19.0305 6.81268 19.1178C6.97561 19.205 7.15766 19.2505 7.34248 19.2501C7.55084 19.2505 7.75505 19.1919 7.93148 19.0811L13.5915 15.5146C13.6319 15.4892 13.6769 15.4721 13.724 15.4642C13.771 15.4563 13.8191 15.4578 13.8656 15.4686C13.9121 15.4794 13.9559 15.4993 13.9947 15.527C14.0335 15.5548 14.0664 15.59 14.0915 15.6306L15.1945 17.4106L14.622 17.7716C14.5803 17.7979 14.5442 17.8322 14.5157 17.8725C14.4873 17.9128 14.4671 17.9583 14.4563 18.0064C14.4455 18.0545 14.4442 18.1043 14.4527 18.1529C14.4611 18.2015 14.4791 18.2479 14.5055 18.2896ZM6.19098 13.2106L16.141 6.94205C16.2008 6.9041 16.2702 6.88398 16.341 6.88405C16.4049 6.88383 16.4678 6.89986 16.5238 6.93065C16.5797 6.96144 16.627 7.00597 16.661 7.06005L17.997 9.18005C18.0235 9.22196 18.0414 9.26868 18.0498 9.31754C18.0582 9.36639 18.0569 9.41643 18.0459 9.46478C18.035 9.51312 18.0146 9.55883 17.9859 9.59929C17.9573 9.63975 17.9209 9.67416 17.879 9.70055L7.92898 15.9691C7.887 15.9954 7.84022 16.0133 7.79134 16.0215C7.74246 16.0298 7.69242 16.0284 7.64408 16.0174C7.59575 16.0063 7.55007 15.9859 7.50964 15.9571C7.46922 15.9284 7.43484 15.892 7.40848 15.8501L6.74098 14.7906L6.07298 13.7311C6.01977 13.6463 6.00231 13.544 6.02443 13.4464C6.04655 13.3489 6.10644 13.264 6.19098 13.2106ZM16.441 17.5146L19.2135 21.9146L18.1135 22.6071L15.341 18.2071L16.441 17.5146ZM2.91998 10.2831C2.87806 10.309 2.84165 10.343 2.81286 10.383C2.78406 10.4231 2.76343 10.4684 2.75215 10.5164C2.74086 10.5644 2.73915 10.6142 2.7471 10.6628C2.75505 10.7115 2.77251 10.7581 2.79848 10.8001L4.13198 12.9531C4.1656 13.0074 4.21256 13.0522 4.26839 13.0833C4.32423 13.1144 4.38709 13.1306 4.45098 13.1306C4.52066 13.1307 4.58896 13.1111 4.64798 13.0741C4.73249 13.0217 4.79276 12.938 4.81554 12.8412C4.83832 12.7444 4.82176 12.6426 4.76948 12.5581L3.43598 10.4046C3.38355 10.3201 3.2998 10.26 3.20309 10.2372C3.10637 10.2144 3.00457 10.2309 2.91998 10.2831ZM6.42748 7.08905C6.45314 7.1315 6.48696 7.16843 6.52698 7.19772C6.56701 7.227 6.61244 7.24806 6.66066 7.25966C6.70888 7.27127 6.75892 7.2732 6.80788 7.26533C6.85685 7.25747 6.90377 7.23997 6.94593 7.21385C6.98809 7.18772 7.02465 7.1535 7.05349 7.11315C7.08233 7.07281 7.10288 7.02714 7.11395 6.9788C7.12502 6.93046 7.1264 6.8804 7.11799 6.83152C7.10959 6.78264 7.09157 6.73592 7.06498 6.69405L6.45748 5.71255C6.40455 5.6292 6.32089 5.57009 6.22464 5.54804C6.12839 5.526 6.02734 5.5428 5.94341 5.59481C5.85947 5.64681 5.79944 5.72982 5.77633 5.82582C5.75322 5.92181 5.76891 6.02305 5.81998 6.10755L6.42748 7.08905Z" fill="#004C8F"/>
</svg>
